<svg width="180" height="157" viewBox="0 0 180 157" fill="none" xmlns="http://www.w3.org/2000/svg">
<path d="M147.81 16.1602L153.215 19.7051L159.205 17.2602L157.5 23.5001L161.675 28.4401L155.215 28.7451L151.81 34.2401L149.52 28.1951L143.24 26.6551L148.285 22.6051L147.81 16.1602Z" fill="#00008D"/>
<path d="M152.56 111.402L157.97 114.947L163.955 112.507L162.25 118.742L166.425 123.682L159.965 123.992L156.56 129.487L154.27 123.442L147.99 121.897L153.035 117.852L152.56 111.402Z" fill="#00008D"/>
<path d="M89.2472 138.883L94.6572 142.433L100.642 139.988L98.9372 146.228L103.112 151.163L96.6522 151.473L93.2472 156.968L90.9572 150.923L84.6772 149.378L89.7222 145.333L89.2472 138.883Z" fill="#00008D"/>
<path d="M13.3801 124.508L18.79 128.053L24.775 125.613L23.075 131.848L27.245 136.788L20.79 137.098L17.38 142.593L15.09 136.543L8.81006 135.003L13.8551 130.958L13.3801 124.508Z" fill="#00008D"/>
<path d="M3.08474 72L5.85473 73.815L8.91973 72.565L8.04973 75.76L10.1897 78.29L6.87973 78.45L5.13474 81.265L3.95974 78.165L0.739746 77.375L3.32474 75.305L3.08474 72Z" fill="#00008D"/>
<path d="M172.155 66.7656L174.925 68.5806L177.995 67.3306L177.12 70.5256L179.26 73.0606L175.95 73.2156L174.205 76.0306L173.03 72.9356L169.81 72.1456L172.395 70.0706L172.155 66.7656Z" fill="#00008D"/>
<path d="M140.887 80.8516L144.702 83.3566L148.927 81.6316L147.727 86.0365L150.672 89.5215L146.112 89.7415L143.707 93.6215L142.092 89.3515L137.662 88.2615L141.222 85.4065L140.887 80.8516Z" fill="#E0E0E0"/>
<path d="M134.384 137.535L137.154 139.35L140.224 138.1L139.349 141.295L141.489 143.83L138.179 143.985L136.434 146.8L135.259 143.705L132.044 142.915L134.629 140.84L134.384 137.535Z" fill="#00008D"/>
<path d="M115.43 128.645L117.2 129.805L119.155 129.005L118.6 131.045L119.965 132.66L117.85 132.76L116.74 134.56L115.99 132.58L113.935 132.075L115.585 130.755L115.43 128.645Z" fill="#E0E0E0"/>
<path d="M74.3207 126.531L76.0907 127.691L78.0457 126.891L77.4907 128.931L78.8557 130.546L76.7457 130.646L75.6307 132.441L74.8807 130.466L72.8257 129.961L74.4757 128.636L74.3207 126.531Z" fill="#E0E0E0"/>
<path d="M20.0704 48.3803L19.6154 50.4453L21.0554 51.9903L18.9504 52.1953L17.9204 54.0403L17.0804 52.1003L15.0054 51.6953L16.5904 50.2953L16.3304 48.1953L18.1554 49.2703L20.0704 48.3803Z" fill="#00008D"/>
<path d="M124.614 6.83234L124.154 8.89734L125.594 10.4473L123.489 10.6473L122.464 12.4973L121.619 10.5573L119.544 10.1523L121.129 8.75234L120.874 6.65234L122.694 7.72734L124.614 6.83234Z" fill="#00008D"/>
<path d="M34.4938 91.4219L37.2638 93.2419L40.3338 91.9869L39.4638 95.1869L41.5988 97.7169L38.2888 97.8719L36.5438 100.692L35.3738 97.5919L32.1538 96.8019L34.7388 94.7269L34.4938 91.4219Z" fill="#E0E0E0"/>
<path d="M54.8766 145.043L57.6466 146.858L60.7166 145.608L59.8416 148.803L61.9816 151.333L58.6716 151.493L56.9266 154.308L55.7516 151.208L52.5366 150.418L55.1216 148.348L54.8766 145.043Z" fill="#00008D"/>
<path d="M53.4157 27.6562L56.1857 29.4712L59.2557 28.2213L58.3807 31.4162L60.5207 33.9462L57.2107 34.1062L55.4657 36.9212L54.2907 33.8212L51.0757 33.0312L53.6557 30.9612L53.4157 27.6562Z" fill="#E0E0E0"/>
<path d="M102.338 12.4062L105.108 14.2262L108.178 12.9712L107.303 16.1712L109.443 18.7012L106.133 18.8562L104.388 21.6762L103.213 18.5762L99.9976 17.7862L102.583 15.7112L102.338 12.4062Z" fill="#E0E0E0"/>
<path d="M21.0363 11.7227L26.4463 15.2676L32.4313 12.8227L30.7313 19.0626L34.9013 24.0026L28.4413 24.3126L25.0363 29.8076L22.7463 23.7576L16.4663 22.2176L21.5113 18.1676L21.0363 11.7227Z" fill="#00008D"/>
<path d="M71.106 0L74.171 2.00999L77.561 0.624998L76.596 4.15999L78.961 6.95498L75.301 7.12998L73.371 10.245L72.076 6.81998L68.521 5.94498L71.376 3.65499L71.106 0Z" fill="#00008D"/>
<path d="M89.748 147.865C128.3 147.865 159.553 116.612 159.553 78.06C159.553 39.5077 128.3 8.25488 89.748 8.25488C51.1957 8.25488 19.9429 39.5077 19.9429 78.06C19.9429 116.612 51.1957 147.865 89.748 147.865Z" fill="#00008D"/>
<path opacity="0.2" d="M147.991 91.7487C155.584 59.5774 135.66 27.3418 103.488 19.7487C71.3169 12.1555 39.0815 32.0802 31.4883 64.2515C23.8952 96.4229 43.8198 128.658 75.9911 136.252C108.162 143.845 140.398 123.92 147.991 91.7487Z" fill="#00008D"/>
<path d="M82.3163 106.631C81.5053 106.649 80.6988 106.506 79.943 106.211C79.1873 105.917 78.4972 105.476 77.9121 104.914L52.5004 80.0305C51.3323 78.8975 50.6622 77.3469 50.6374 75.7198C50.6127 74.0927 51.2353 72.5224 52.3683 71.3544C53.5013 70.1863 55.0519 69.5162 56.679 69.4914C58.3061 69.4666 59.8763 70.0893 61.0444 71.2223L81.8758 91.6133L117.901 51.4038C119.006 50.2904 120.496 49.6435 122.064 49.5965C123.631 49.5495 125.157 50.1059 126.326 51.151C127.496 52.1961 128.219 53.6502 128.348 55.2132C128.477 56.7762 128.001 58.3291 127.018 59.5513L86.7204 104.517C86.1646 105.139 85.4867 105.64 84.729 105.988C83.9713 106.337 83.1501 106.526 82.3163 106.543V106.631Z" fill="white"/>
</svg>
