<svg width="20" height="20" viewBox="0 0 20 20" fill="none" xmlns="http://www.w3.org/2000/svg">
<path d="M7.49992 18.9587H12.4999C17.0249 18.9587 18.9583 17.0253 18.9583 12.5003V7.50033C18.9583 2.97533 17.0249 1.04199 12.4999 1.04199H8.33325C7.99158 1.04199 7.70825 1.32533 7.70825 1.66699C7.70825 2.00866 7.99158 2.29199 8.33325 2.29199H12.4999C16.3416 2.29199 17.7083 3.65866 17.7083 7.50033V12.5003C17.7083 16.342 16.3416 17.7087 12.4999 17.7087H7.49992C3.65825 17.7087 2.29158 16.342 2.29158 12.5003V8.33366C2.29158 7.99199 2.00825 7.70866 1.66658 7.70866C1.32492 7.70866 1.04158 7.99199 1.04158 8.33366V12.5003C1.04158 17.0253 2.97492 18.9587 7.49992 18.9587Z" fill="#353535"/>
<path d="M1.66659 8.95841H4.99992C7.84992 8.95841 8.95825 7.85007 8.95825 5.00007V1.66674C8.95825 1.41674 8.80825 1.18341 8.57492 1.09174C8.34159 0.991739 8.07492 1.05007 7.89159 1.22507L1.22492 7.89174C1.04992 8.06674 0.991586 8.34174 1.09159 8.57507C1.19159 8.8084 1.41659 8.95841 1.66659 8.95841ZM7.70825 3.17507V5.00007C7.70825 7.15007 7.14992 7.70841 4.99992 7.70841H3.17492L7.70825 3.17507Z" fill="#353535"/>
<path d="M9.16675 11.458H14.1667C14.5084 11.458 14.7917 11.1747 14.7917 10.833C14.7917 10.4913 14.5084 10.208 14.1667 10.208H9.16675C8.82508 10.208 8.54175 10.4913 8.54175 10.833C8.54175 11.1747 8.82508 11.458 9.16675 11.458Z" fill="#353535"/>
<path d="M10.8334 14.792H14.1667C14.5084 14.792 14.7917 14.5087 14.7917 14.167C14.7917 13.8253 14.5084 13.542 14.1667 13.542H10.8334C10.4917 13.542 10.2084 13.8253 10.2084 14.167C10.2084 14.5087 10.4917 14.792 10.8334 14.792Z" fill="#353535"/>
</svg>
