<svg width="68" height="68" viewBox="0 0 68 68" fill="none" xmlns="http://www.w3.org/2000/svg">
<g filter="url(#filter0_d_1356_14459)">
<path d="M31.0574 7.06547C32.6622 5.39365 35.3378 5.39365 36.9426 7.06547V7.06547C37.9409 8.10546 39.4151 8.54096 40.8181 8.20977V8.20977C43.0622 7.68005 45.3056 9.15351 45.7567 11.4147V11.4147C46.0394 12.832 47.0481 14.0179 48.4082 14.5065V14.5065C50.586 15.289 51.6817 17.739 50.8473 19.8975V19.8975C50.3247 21.2495 50.5407 22.7962 51.4214 23.9475V23.9475C52.8331 25.7931 52.4593 28.447 50.5847 29.8199V29.8199C49.4167 30.6753 48.7815 32.1 48.9056 33.5424V33.5424C49.1035 35.8414 47.3663 37.8894 45.0626 38.02V38.02C43.6219 38.1017 42.3248 38.9472 41.6582 40.2269V40.2269C40.5912 42.2751 38.0244 43.0459 36.0197 41.8994V41.8994C34.7684 41.1836 33.2316 41.1836 31.9803 41.8994V41.8994C29.9756 43.0459 27.4088 42.2751 26.3418 40.2269V40.2269C25.6752 38.9472 24.3781 38.1017 22.9374 38.02V38.02C20.6337 37.8894 18.8965 35.8414 19.0944 33.5424V33.5424C19.2185 32.1 18.5833 30.6753 17.4153 29.8199V29.8199C15.5407 28.447 15.1669 25.7931 16.5786 23.9475V23.9475C17.4593 22.7962 17.6753 21.2495 17.1527 19.8975V19.8975C16.3183 17.739 17.414 15.289 19.5918 14.5065V14.5065C20.9519 14.0179 21.9606 12.832 22.2433 11.4147V11.4147C22.6944 9.15351 24.9378 7.68005 27.1819 8.20977V8.20977C28.5849 8.54096 30.0591 8.10546 31.0574 7.06547V7.06547Z" fill="url(#paint0_linear_1356_14459)"/>
<path d="M31.0574 7.06547C32.6622 5.39365 35.3378 5.39365 36.9426 7.06547V7.06547C37.9409 8.10546 39.4151 8.54096 40.8181 8.20977V8.20977C43.0622 7.68005 45.3056 9.15351 45.7567 11.4147V11.4147C46.0394 12.832 47.0481 14.0179 48.4082 14.5065V14.5065C50.586 15.289 51.6817 17.739 50.8473 19.8975V19.8975C50.3247 21.2495 50.5407 22.7962 51.4214 23.9475V23.9475C52.8331 25.7931 52.4593 28.447 50.5847 29.8199V29.8199C49.4167 30.6753 48.7815 32.1 48.9056 33.5424V33.5424C49.1035 35.8414 47.3663 37.8894 45.0626 38.02V38.02C43.6219 38.1017 42.3248 38.9472 41.6582 40.2269V40.2269C40.5912 42.2751 38.0244 43.0459 36.0197 41.8994V41.8994C34.7684 41.1836 33.2316 41.1836 31.9803 41.8994V41.8994C29.9756 43.0459 27.4088 42.2751 26.3418 40.2269V40.2269C25.6752 38.9472 24.3781 38.1017 22.9374 38.02V38.02C20.6337 37.8894 18.8965 35.8414 19.0944 33.5424V33.5424C19.2185 32.1 18.5833 30.6753 17.4153 29.8199V29.8199C15.5407 28.447 15.1669 25.7931 16.5786 23.9475V23.9475C17.4593 22.7962 17.6753 21.2495 17.1527 19.8975V19.8975C16.3183 17.739 17.414 15.289 19.5918 14.5065V14.5065C20.9519 14.0179 21.9606 12.832 22.2433 11.4147V11.4147C22.6944 9.15351 24.9378 7.68005 27.1819 8.20977V8.20977C28.5849 8.54096 30.0591 8.10546 31.0574 7.06547V7.06547Z" fill="url(#paint1_linear_1356_14459)" fill-opacity="0.1"/>
<path d="M20.1333 24.2709C20.1333 16.6126 26.3416 10.4043 33.9999 10.4043V10.4043C41.6583 10.4043 47.8666 16.6126 47.8666 24.2709V24.5561C47.8666 32.2144 41.6583 38.4228 33.9999 38.4228V38.4228C26.3416 38.4228 20.1333 32.2145 20.1333 24.5561V24.2709Z" fill="black" fill-opacity="0.04"/>
<path d="M46.2356 24.2709V24.5561C46.2356 31.3137 40.7575 36.7917 33.9999 36.7917C27.2424 36.7917 21.7643 31.3137 21.7643 24.5561V24.2709C21.7643 17.5134 27.2424 12.0353 33.9999 12.0353C40.7575 12.0353 46.2356 17.5134 46.2356 24.2709Z" stroke="white" stroke-opacity="0.3" stroke-width="3.26201"/>
<path d="M31.7145 26.9453L29.0519 24.2554C28.9086 24.1102 28.714 24.0286 28.511 24.0286C28.308 24.0286 28.1134 24.1102 27.97 24.2554C27.6708 24.5577 27.6708 25.0461 27.97 25.3484L31.1774 28.5887C31.4766 28.891 31.96 28.891 32.2593 28.5887L40.3773 20.3871C40.6766 20.0848 40.6766 19.5964 40.3773 19.2941C40.234 19.149 40.0394 19.0674 39.8364 19.0674C39.6334 19.0674 39.4388 19.149 39.2954 19.2941L31.7145 26.9453Z" fill="white" stroke="#FDFDFD" stroke-width="0.652402"/>
<path d="M34.0003 11.933C34.0003 11.134 34.6498 10.4786 35.4445 10.5607C37.9537 10.8199 40.3566 11.751 42.3941 13.2682C44.8198 15.0745 46.5981 17.6151 47.4649 20.5126C48.3316 23.4101 48.2406 26.5099 47.2052 29.3516C46.1699 32.1932 44.2455 34.625 41.7179 36.2858C39.1904 37.9466 36.1945 38.7477 33.1754 38.5702C30.1562 38.3927 27.2749 37.2459 24.9594 35.3004C22.6439 33.3548 21.0178 30.7142 20.3226 27.7708C19.7387 25.2985 19.8377 22.7234 20.5957 20.3174C20.8358 19.5554 21.6952 19.2194 22.4285 19.5365V19.5365C23.1619 19.8537 23.4894 20.7039 23.2697 21.4721C22.747 23.3001 22.6978 25.2398 23.1385 27.1057C23.6906 29.4431 24.9819 31.5401 26.8207 33.0851C28.6595 34.6302 30.9476 35.5408 33.3452 35.6818C35.7428 35.8228 38.1219 35.1866 40.1291 33.8677C42.1363 32.5488 43.6645 30.6177 44.4867 28.3611C45.3089 26.1045 45.3812 23.6428 44.6929 21.3419C44.0045 19.0409 42.5923 17.0233 40.666 15.5889C39.1283 14.4438 37.3284 13.7191 35.443 13.4733C34.6508 13.3701 34.0003 12.732 34.0003 11.933V11.933Z" fill="white" fill-opacity="0.5"/>
</g>
<defs>
<filter id="filter0_d_1356_14459" x="-0.862715" y="-0.954238" width="69.7254" height="69.7254" filterUnits="userSpaceOnUse" color-interpolation-filters="sRGB">
<feFlood flood-opacity="0" result="BackgroundImageFix"/>
<feColorMatrix in="SourceAlpha" type="matrix" values="0 0 0 0 0 0 0 0 0 0 0 0 0 0 0 0 0 0 127 0" result="hardAlpha"/>
<feOffset dy="9.90848"/>
<feGaussianBlur stdDeviation="7.43136"/>
<feComposite in2="hardAlpha" operator="out"/>
<feColorMatrix type="matrix" values="0 0 0 0 0.917647 0 0 0 0 0.690196 0 0 0 0 0.12549 0 0 0 0.4 0"/>
<feBlend mode="normal" in2="BackgroundImageFix" result="effect1_dropShadow_1356_14459"/>
<feBlend mode="normal" in="SourceGraphic" in2="effect1_dropShadow_1356_14459" result="shape"/>
</filter>
<linearGradient id="paint0_linear_1356_14459" x1="21.0234" y1="7.74582" x2="42.9632" y2="42.3278" gradientUnits="userSpaceOnUse">
<stop stop-color="#FFE092"/>
<stop offset="1" stop-color="#E3A302"/>
</linearGradient>
<linearGradient id="paint1_linear_1356_14459" x1="7.13062" y1="0.875" x2="37.516" y2="55.1102" gradientUnits="userSpaceOnUse">
<stop stop-color="white"/>
<stop offset="1" stop-color="white" stop-opacity="0"/>
</linearGradient>
</defs>
</svg>
