<svg width="250" height="157" viewBox="0 0 250 157" fill="none" xmlns="http://www.w3.org/2000/svg">
<path d="M250 27.0308L245.965 46.5729L243.367 44.039L238.949 47.1927L235.572 42.9976L228 48.504L221.528 37.681L214.31 41.9098L211.447 37.9634L202.281 43.1283L199.523 37.2214L205.949 6.10156L240.395 13.2143L250 27.0308Z" fill="#EBEBEB"/>
<path d="M240.391 13.2188L249.996 27.0353L238.047 24.5688L240.391 13.2188Z" fill="#DBDBDB"/>
<path d="M245.103 50.4762L239.188 79.1464L192.789 69.5672L198.662 41.1289L201.42 47.0316L210.59 41.8667L213.448 45.8131L220.671 41.5885L227.138 52.4115L234.715 46.9051L238.088 51.096L242.51 47.9465L245.103 50.4762Z" fill="#EBEBEB"/>
<path d="M126.903 156.233C193.671 156.233 247.797 150.302 247.797 142.986C247.797 135.669 193.671 129.738 126.903 129.738C60.1342 129.738 6.00781 135.669 6.00781 142.986C6.00781 150.302 60.1342 156.233 126.903 156.233Z" fill="#EBEBEB"/>
<path d="M211.787 145.842H83.3281L101.9 40.5H230.359L211.787 145.842Z" fill="#00008D"/>
<path d="M145.865 29.5859H103.825L101.898 40.4975H146.889L145.865 29.5859Z" fill="#00008D"/>
<g opacity="0.1">
<path d="M211.79 145.841H83.3311L101.903 40.499H230.362L211.79 145.841Z" fill="#FDFDFE"/>
<path d="M145.868 29.585H103.828L101.901 40.4965H146.892L145.868 29.585Z" fill="#FDFDFE"/>
</g>
<path d="M99.289 34.0392C99.0078 32.8327 99.0078 31.5776 99.289 30.3711C99.5701 31.5776 99.5701 32.8327 99.289 34.0392Z" fill="white"/>
<path d="M95.557 35.1198C95.1277 34.6747 94.7578 34.1758 94.4566 33.6357C94.1406 33.1069 93.8927 32.5402 93.7188 31.9492C94.1493 32.3918 94.5193 32.8894 94.8192 33.4291C95.1344 33.9598 95.3823 34.5278 95.557 35.1198Z" fill="white"/>
<path d="M92.8545 37.9239C91.6697 37.5637 90.5836 36.9362 89.6797 36.0898C90.2708 36.2616 90.8375 36.5082 91.3662 36.8235C91.9063 37.1266 92.4063 37.4963 92.8545 37.9239Z" fill="white"/>
<path d="M91.9103 41.6991C90.7037 41.9802 89.4487 41.9802 88.2422 41.6991C89.4487 41.418 90.7037 41.418 91.9103 41.6991Z" fill="white"/>
<path d="M93.0065 45.4336C92.5595 45.8607 92.0609 46.2303 91.5224 46.534C90.9937 46.8493 90.427 47.0958 89.8359 47.2676C90.2811 46.8383 90.7799 46.4685 91.32 46.1672C91.8479 45.8504 92.4149 45.6038 93.0065 45.4336Z" fill="white"/>
<path d="M95.8106 48.1289C95.4517 49.3154 94.8241 50.4033 93.9766 51.3079C94.1482 50.7161 94.3963 50.1492 94.7144 49.6214C95.0149 49.0794 95.3833 48.5779 95.8106 48.1289Z" fill="white"/>
<path d="M99.5791 49.0586C99.7261 49.6587 99.797 50.2749 99.7899 50.8926C99.799 51.5105 99.7282 52.127 99.5791 52.7267C99.428 52.1274 99.3572 51.5106 99.3683 50.8926C99.3613 50.2749 99.4321 49.6587 99.5791 49.0586Z" fill="white"/>
<path d="M103.32 48.0006C103.75 48.4458 104.119 48.9446 104.421 49.4847C104.738 50.0126 104.984 50.5796 105.154 51.1712C104.307 50.2666 103.679 49.1787 103.32 47.9922V48.0006Z" fill="white"/>
<path d="M106.016 45.1758C106.607 45.346 107.174 45.5926 107.702 45.9094C108.242 46.2106 108.741 46.5805 109.186 47.0098C108.595 46.8396 108.028 46.593 107.5 46.2762C106.96 45.975 106.461 45.6051 106.016 45.1758Z" fill="white"/>
<path d="M106.945 41.4022C108.153 41.1212 109.41 41.1212 110.618 41.4022C109.41 41.6832 108.153 41.6832 106.945 41.4022Z" fill="white"/>
<path d="M105.868 37.6622C106.314 37.2355 106.813 36.8671 107.352 36.566C107.879 36.2461 108.446 35.998 109.038 35.8281C108.134 36.6756 107.046 37.3032 105.859 37.6622H105.868Z" fill="white"/>
<path d="M103.062 34.9714C103.236 34.3809 103.483 33.8144 103.796 33.2849C104.097 32.7448 104.467 32.2459 104.897 31.8008C104.726 32.3924 104.48 32.9594 104.163 33.4873C103.862 34.0274 103.492 34.5262 103.062 34.9714Z" fill="white"/>
<path d="M211.592 145.838H82.8595L64.5781 44.3203H193.315L211.592 145.838Z" fill="#00008D"/>
<path d="M109.194 106.38C112.149 106.38 114.544 103.985 114.544 101.03C114.544 98.0751 112.149 95.6797 109.194 95.6797C106.239 95.6797 103.844 98.0751 103.844 101.03C103.844 103.985 106.239 106.38 109.194 106.38Z" fill="white"/>
<path d="M151.483 106.38C154.438 106.38 156.833 103.985 156.833 101.03C156.833 98.0751 154.438 95.6797 151.483 95.6797C148.528 95.6797 146.133 98.0751 146.133 101.03C146.133 103.985 148.528 106.38 151.483 106.38Z" fill="white"/>
<path d="M138.025 107.236L137.73 106.675C137.704 106.625 134.938 101.515 129.377 101.515C124.318 101.515 123.053 106.326 123.019 106.532L122.868 107.143L121.641 106.848L121.788 106.233C121.788 106.174 123.298 100.25 129.377 100.25C135.702 100.25 138.725 105.849 138.851 106.089L139.146 106.646L138.025 107.236Z" fill="white"/>
<path d="M101.314 11.7117C101.112 13.6483 100.376 15.4906 99.1874 17.0331C97.9992 18.5757 96.4058 19.7577 94.5849 20.4473C92.7641 21.1369 90.7874 21.3069 88.8755 20.9385C86.9636 20.57 85.1918 19.6776 83.7576 18.3607L78.5 19.1322L81.1309 14.5872C80.5293 13.1083 80.2726 11.5117 80.3803 9.91879C80.4881 8.32585 80.9574 6.77842 81.7527 5.39403C82.5481 4.00963 83.6484 2.8247 84.9702 1.92924C86.292 1.03377 87.8005 0.451319 89.3812 0.226129C90.9618 0.000939034 92.5729 0.138933 94.0922 0.629627C95.6115 1.12032 96.999 1.95081 98.1493 3.05801C99.2996 4.16521 100.182 5.52 100.731 7.01947C101.279 8.51894 101.478 10.1237 101.314 11.7117Z" fill="white"/>
<path d="M101.315 11.7115C101.117 13.6471 100.388 15.4902 99.207 17.0366C98.6301 17.8187 97.9345 18.5059 97.1453 19.073C96.3734 19.6615 95.5216 20.1371 94.6156 20.4855C93.7091 20.8425 92.7566 21.0696 91.7865 21.1601C91.3015 21.2036 90.8141 21.2135 90.3277 21.1896C89.8397 21.177 89.3533 21.1263 88.8732 21.0378C86.9355 20.6813 85.1354 19.7922 83.6746 18.4701L83.7969 18.5081L78.5477 19.3134L78.1641 19.3724L78.358 19.0351L80.972 14.4816V14.6629C80.3552 13.1567 80.093 11.5288 80.2055 9.90513C80.3181 8.28143 80.8025 6.70535 81.6213 5.2987C82.4391 3.89647 83.5634 2.69728 84.9099 1.79081C86.2544 0.896376 87.7839 0.317941 89.3837 0.098883C90.9836 -0.120175 92.6122 0.0258297 94.1476 0.52595C95.6667 1.04276 97.0511 1.89268 98.1994 3.01351C99.3451 4.13154 100.221 5.49586 100.761 7.00295C101.301 8.51004 101.49 10.1203 101.315 11.7115ZM101.315 11.7115C101.485 10.1281 101.29 8.52676 100.743 7.03104C100.196 5.53532 99.3128 4.18527 98.1613 3.08514C97.0099 1.985 95.621 1.1642 94.1019 0.686106C92.5828 0.208014 90.9742 0.0854185 89.4002 0.327787C87.842 0.558425 86.3576 1.14409 85.0617 2.03957C83.777 2.94208 82.7037 4.11312 81.9165 5.47156C81.1413 6.83301 80.6844 8.35227 80.5799 9.91544C80.4773 11.4892 80.7309 13.0658 81.322 14.528L81.3599 14.6207L81.3093 14.7093L78.6616 19.2459L78.4761 18.9676L83.7379 18.2298H83.8095L83.8601 18.2762C85.2666 19.5853 87.0097 20.4773 88.8942 20.8523C89.3639 20.948 89.8404 21.0058 90.3193 21.0251C90.798 21.0589 91.2784 21.0589 91.757 21.0251C92.7169 20.9478 93.6617 20.7393 94.565 20.4054C95.4703 20.0758 96.3226 19.6155 97.0947 19.0393C97.8806 18.4767 98.5771 17.7987 99.1606 17.0282C100.357 15.4892 101.102 13.6489 101.315 11.7115Z" fill="#263238"/>
<path d="M85.7283 15.5169C85.7202 15.3773 85.7409 15.2375 85.789 15.1063C85.8372 14.975 85.9118 14.8551 86.0083 14.7539C86.1048 14.6526 86.221 14.5723 86.3498 14.5179C86.4786 14.4635 86.6172 14.4362 86.757 14.4375C87.0433 14.4375 87.3178 14.5513 87.5202 14.7537C87.7226 14.9561 87.8364 15.2306 87.8364 15.5169C87.8364 15.8031 87.7226 16.0777 87.5202 16.2801C87.3178 16.4825 87.0433 16.5962 86.757 16.5962C86.6172 16.5976 86.4786 16.5703 86.3498 16.5159C86.221 16.4614 86.1048 16.3811 86.0083 16.2799C85.9118 16.1787 85.8372 16.0588 85.789 15.9275C85.7409 15.7962 85.7202 15.6565 85.7283 15.5169ZM86.1499 13.0251L85.9054 4.66016H87.5918L87.3473 13.0251H86.1499Z" fill="#00008D"/>
<path d="M89.7439 15.5169C89.7358 15.3777 89.7564 15.2383 89.8043 15.1073C89.8522 14.9763 89.9265 14.8566 90.0225 14.7554C90.1185 14.6543 90.2342 14.5739 90.3625 14.5192C90.4908 14.4645 90.629 14.4367 90.7684 14.4375C91.0547 14.4375 91.3292 14.5513 91.5316 14.7537C91.734 14.9561 91.8478 15.2306 91.8478 15.5169C91.8478 15.8031 91.734 16.0777 91.5316 16.2801C91.3292 16.4825 91.0547 16.5962 90.7684 16.5962C90.629 16.597 90.4908 16.5693 90.3625 16.5146C90.2342 16.4599 90.1185 16.3795 90.0225 16.2784C89.9265 16.1772 89.8522 16.0575 89.8043 15.9265C89.7564 15.7955 89.7358 15.6561 89.7439 15.5169ZM90.1655 13.0251L89.9336 4.66016H91.6201L91.3756 13.0251H90.1655Z" fill="#00008D"/>
<path d="M93.7439 15.5169C93.7358 15.3773 93.7565 15.2375 93.8047 15.1063C93.8528 14.975 93.9275 14.8551 94.0239 14.7539C94.1204 14.6526 94.2366 14.5723 94.3654 14.5179C94.4942 14.4635 94.6328 14.4362 94.7726 14.4375C95.0589 14.4375 95.3334 14.5513 95.5359 14.7537C95.7383 14.9561 95.852 15.2306 95.852 15.5169C95.852 15.8031 95.7383 16.0777 95.5359 16.2801C95.3334 16.4825 95.0589 16.5962 94.7726 16.5962C94.6328 16.5976 94.4942 16.5703 94.3654 16.5159C94.2366 16.4614 94.1204 16.3811 94.0239 16.2799C93.9275 16.1787 93.8528 16.0588 93.8047 15.9275C93.7565 15.7962 93.7358 15.6565 93.7439 15.5169ZM94.1655 13.0251L93.921 4.66016H95.6074L95.3671 13.0251H94.1655Z" fill="#00008D"/>
</svg>
