<svg width="14" height="14" viewBox="0 0 14 14" fill="none" xmlns="http://www.w3.org/2000/svg">
<g clip-path="url(#clip0_561_8101)">
<path d="M6.99945 10.3409L9.99195 12.1811C10.0696 12.2283 10.1595 12.2513 10.2502 12.2474C10.341 12.2435 10.4285 12.2127 10.5018 12.159C10.5751 12.1054 10.6308 12.0312 10.6619 11.9459C10.693 11.8605 10.6982 11.7679 10.6766 11.6796L9.86289 8.24581L12.5262 5.94894C12.5941 5.88931 12.643 5.81111 12.667 5.72398C12.691 5.63685 12.6889 5.54461 12.661 5.45864C12.6332 5.37268 12.5807 5.29676 12.5102 5.24025C12.4397 5.18374 12.3542 5.14912 12.2642 5.14066L8.76914 4.85628L7.42274 1.59691C7.38841 1.51282 7.32982 1.44086 7.25443 1.39021C7.17904 1.33955 7.09028 1.3125 6.99945 1.3125C6.90863 1.3125 6.81986 1.33955 6.74448 1.39021C6.66909 1.44086 6.6105 1.51282 6.57617 1.59691L5.22977 4.85628L1.73469 5.14066C1.64411 5.14861 1.55788 5.18308 1.48677 5.23976C1.41567 5.29644 1.36284 5.37281 1.3349 5.45934C1.30695 5.54587 1.30512 5.63871 1.32963 5.72627C1.35415 5.81384 1.40392 5.89223 1.47274 5.95167L4.13602 8.24855L3.32227 11.6796C3.30075 11.7679 3.30588 11.8605 3.33701 11.9459C3.36813 12.0312 3.42385 12.1054 3.49713 12.159C3.57041 12.2127 3.65795 12.2435 3.7487 12.2474C3.83944 12.2513 3.92931 12.2283 4.00695 12.1811L6.99945 10.3409Z" fill="#FFCF00" stroke="#FFCF00" stroke-width="0.875" stroke-linecap="round" stroke-linejoin="round"/>
</g>
<defs>
<clipPath id="clip0_561_8101">
<rect width="14" height="14" fill="white"/>
</clipPath>
</defs>
</svg>
