<svg width="232" height="202" viewBox="0 0 232 202" fill="none" xmlns="http://www.w3.org/2000/svg">
<path d="M109.62 180.342H3.41826C2.58629 180.34 1.78889 180.009 1.20111 179.42C0.613327 178.831 0.283202 178.033 0.283203 177.201V27.9148C0.290446 27.0876 0.623766 26.2966 1.21076 25.7138C1.79776 25.1309 2.59103 24.8032 3.41826 24.8018H109.62C110.453 24.8018 111.251 25.1326 111.84 25.7216C112.429 26.3105 112.76 27.1093 112.76 27.9423V177.201C112.76 178.034 112.429 178.833 111.84 179.422C111.251 180.011 110.453 180.342 109.62 180.342ZM3.41826 24.9118C2.62276 24.9132 1.86033 25.2302 1.29834 25.7933C0.736342 26.3563 0.420704 27.1193 0.420706 27.9148V177.201C0.420704 177.997 0.736342 178.76 1.29834 179.323C1.86033 179.886 2.62276 180.203 3.41826 180.204H109.62C110.416 180.203 111.179 179.886 111.742 179.323C112.304 178.76 112.621 177.997 112.623 177.201V27.9148C112.621 27.1188 112.304 26.3558 111.742 25.7929C111.179 25.2301 110.416 24.9132 109.62 24.9118H3.41826Z" fill="#EBEBEB"/>
<path d="M228.588 180.342H122.381C121.548 180.34 120.75 180.009 120.162 179.42C119.573 178.832 119.242 178.034 119.24 177.201V27.9148C119.249 27.0871 119.583 26.2962 120.171 25.7134C120.759 25.1307 121.553 24.8032 122.381 24.8018H228.588C229.414 24.8046 230.206 25.133 230.792 25.7157C231.378 26.2984 231.71 27.0885 231.717 27.9148V177.201C231.717 178.032 231.388 178.83 230.801 179.418C230.215 180.007 229.419 180.339 228.588 180.342ZM122.381 24.9118C121.585 24.9132 120.822 25.2301 120.259 25.7929C119.696 26.3558 119.379 27.1188 119.378 27.9148V177.201C119.379 177.997 119.696 178.76 120.259 179.323C120.822 179.886 121.585 180.203 122.381 180.204H228.588C229.384 180.203 230.147 179.886 230.71 179.323C231.272 178.76 231.589 177.997 231.591 177.201V27.9148C231.589 27.1188 231.272 26.3558 230.71 25.7929C230.147 25.2301 229.384 24.9132 228.588 24.9118H122.381Z" fill="#EBEBEB"/>
<path d="M78.4709 112.979H183.022C183.579 112.984 184.13 112.874 184.642 112.655C185.154 112.436 185.614 112.113 185.994 111.706C186.374 111.3 186.666 110.819 186.85 110.293C187.035 109.768 187.108 109.211 187.065 108.656L181.158 17.1026C181.065 15.9378 180.541 14.8495 179.689 14.0501C178.837 13.2507 177.717 12.7977 176.549 12.7795H72.0028C71.4458 12.7733 70.8936 12.8831 70.3813 13.1018C69.8691 13.3205 69.4079 13.6434 69.0272 14.05C68.6464 14.4566 68.3545 14.938 68.1699 15.4635C67.9852 15.989 67.912 16.5472 67.9547 17.1026L73.8673 108.656C73.9601 109.819 74.4831 110.907 75.3342 111.706C76.1853 112.505 77.3035 112.959 78.4709 112.979Z" fill="#EBEBEB"/>
<path d="M185.231 108.1L179.67 22.0026C179.613 21.1717 179.245 20.3931 178.638 19.8229C178.031 19.2527 177.231 18.933 176.398 18.9281H72.9519C72.5554 18.9221 72.1621 18.9992 71.7972 19.1543C71.4323 19.3094 71.1039 19.539 70.833 19.8286C70.5621 20.1181 70.3548 20.461 70.2243 20.8354C70.0938 21.2098 70.0431 21.6074 70.0753 22.0026L75.6359 108.1C75.6977 108.929 76.068 109.705 76.6737 110.276C77.2795 110.846 78.0768 111.168 78.9085 111.18H182.354C182.751 111.185 183.145 111.107 183.509 110.951C183.874 110.796 184.203 110.565 184.474 110.275C184.744 109.986 184.952 109.642 185.082 109.268C185.212 108.893 185.263 108.495 185.231 108.1Z" fill="#FAFAFA"/>
<path d="M138.598 76.2506H170.476L167.138 22.1855H135.259L138.598 76.2506Z" fill="#F5F5F5"/>
<path d="M91.6562 61.142H114.069L111.721 23.126H89.3076L91.6562 61.142Z" fill="#F5F5F5"/>
<path d="M72.01 12.801H176.556C177.721 12.8187 178.837 13.2686 179.689 14.0634C180.541 14.8582 181.067 15.9412 181.165 17.102H67.9619C67.9223 16.5484 67.998 15.9926 68.184 15.4697C68.3701 14.9468 68.6626 14.4682 69.043 14.064C69.4233 13.6599 69.8834 13.339 70.3941 13.1216C70.9048 12.9042 71.455 12.795 72.01 12.801Z" fill="#F5F5F5"/>
<path d="M174.003 14.9641C174.025 15.244 174.149 15.5061 174.352 15.7C174.555 15.8939 174.823 16.0059 175.103 16.0146C175.239 16.0166 175.373 15.9902 175.498 15.9372C175.623 15.8842 175.735 15.8058 175.828 15.7069C175.92 15.608 175.991 15.4909 176.036 15.363C176.081 15.2351 176.098 15.0992 176.088 14.9641C176.066 14.6842 175.942 14.4221 175.739 14.2282C175.536 14.0343 175.268 13.9223 174.988 13.9136C174.852 13.9125 174.718 13.9394 174.594 13.9927C174.47 14.046 174.358 14.1244 174.265 14.2231C174.173 14.3218 174.102 14.4386 174.057 14.5662C174.011 14.6937 173.993 14.8292 174.003 14.9641Z" fill="white"/>
<path d="M168.89 14.9642C168.912 15.2441 169.036 15.5062 169.239 15.7001C169.442 15.894 169.71 16.006 169.99 16.0147C170.126 16.0166 170.26 15.9903 170.385 15.9373C170.51 15.8843 170.622 15.8059 170.715 15.707C170.807 15.6081 170.878 15.4909 170.923 15.363C170.968 15.2351 170.986 15.0993 170.975 14.9642C170.953 14.6843 170.829 14.4222 170.626 14.2283C170.423 14.0344 170.155 13.9223 169.875 13.9137C169.739 13.9117 169.605 13.9381 169.48 13.9911C169.355 14.044 169.243 14.1225 169.15 14.2214C169.058 14.3203 168.987 14.4374 168.942 14.5653C168.897 14.6932 168.88 14.8291 168.89 14.9642Z" fill="white"/>
<path d="M163.777 14.9642C163.799 15.2441 163.923 15.5062 164.126 15.7001C164.329 15.894 164.596 16.006 164.877 16.0147C165.012 16.0158 165.146 15.9889 165.271 15.9356C165.395 15.8823 165.507 15.8039 165.599 15.7052C165.692 15.6065 165.763 15.4897 165.808 15.3621C165.853 15.2346 165.871 15.0991 165.862 14.9642C165.84 14.6843 165.716 14.4222 165.513 14.2283C165.31 14.0344 165.042 13.9223 164.762 13.9137C164.626 13.9117 164.492 13.9381 164.367 13.9911C164.242 14.044 164.13 14.1225 164.037 14.2214C163.944 14.3203 163.873 14.4374 163.829 14.5653C163.784 14.6932 163.766 14.8291 163.777 14.9642Z" fill="white"/>
<path d="M25.2872 154.6H154.743C155.433 154.607 156.117 154.471 156.752 154.2C157.386 153.928 157.958 153.528 158.43 153.025C158.901 152.521 159.263 151.924 159.492 151.273C159.721 150.622 159.812 149.931 159.759 149.243L152.439 35.9261C152.326 34.483 151.679 33.1339 150.624 32.1429C149.569 31.152 148.182 30.5907 146.735 30.5691H17.279C16.5877 30.5575 15.9017 30.6909 15.265 30.9606C14.6284 31.2303 14.0554 31.6304 13.5828 32.1351C13.1103 32.6398 12.7487 33.2378 12.5213 33.8908C12.294 34.5437 12.206 35.237 12.2629 35.9261L19.578 149.259C19.6967 150.699 20.3469 152.044 21.4022 153.031C22.4575 154.018 23.8423 154.577 25.2872 154.6Z" fill="#F5F5F5"/>
<path d="M157.469 148.579L150.6 41.9674C150.52 40.9418 150.06 39.9829 149.31 39.2788C148.56 38.5747 147.574 38.1762 146.546 38.1614H18.454C17.9637 38.1553 17.4775 38.2515 17.0265 38.4439C16.5754 38.6363 16.1695 38.9207 15.8346 39.2789C15.4997 39.6371 15.2432 40.0612 15.0815 40.5241C14.9198 40.987 14.8564 41.4786 14.8955 41.9674L21.7761 148.579C21.8516 149.608 22.3097 150.571 23.06 151.279C23.8103 151.986 24.7985 152.387 25.8297 152.402H153.922C154.412 152.406 154.898 152.308 155.349 152.113C155.799 151.919 156.205 151.633 156.538 151.273C156.872 150.913 157.127 150.488 157.288 150.024C157.448 149.561 157.51 149.068 157.469 148.579Z" fill="white"/>
<path d="M78.5677 111.422H118.036L113.9 44.4814H74.4316L78.5677 111.422Z" fill="#F5F5F5"/>
<path d="M32.601 97.598H60.3545L57.4504 50.5234H29.6914L32.601 97.598Z" fill="#F5F5F5"/>
<path d="M31.8411 133.961H44.0898L42.8028 113.193H30.5596L31.8411 133.961Z" fill="#F5F5F5"/>
<path d="M47.843 133.961H60.0863L58.8048 113.193H46.5615L47.843 133.961Z" fill="#F5F5F5"/>
<path d="M17.279 30.5691H146.735C148.182 30.5907 149.569 31.152 150.624 32.1429C151.679 33.1339 152.326 34.483 152.439 35.9261H12.2629C12.206 35.237 12.294 34.5437 12.5213 33.8908C12.7487 33.2378 13.1103 32.6398 13.5828 32.1351C14.0554 31.6304 14.6284 31.2303 15.265 30.9606C15.9017 30.6909 16.5877 30.5575 17.279 30.5691Z" fill="#EBEBEB"/>
<path d="M145.85 34.1943C146.334 33.6945 146.294 32.8715 145.762 32.356C145.229 31.8405 144.405 31.8277 143.921 32.3275C143.438 32.8273 143.477 33.6503 144.01 34.1658C144.542 34.6813 145.366 34.6941 145.85 34.1943Z" fill="white"/>
<path d="M137.257 33.2503C137.283 33.6001 137.439 33.9274 137.695 34.1677C137.95 34.408 138.287 34.5438 138.638 34.5483C138.807 34.5544 138.976 34.5244 139.133 34.4605C139.29 34.3966 139.431 34.3001 139.548 34.1774C139.665 34.0548 139.755 33.9088 139.811 33.7489C139.867 33.5891 139.889 33.4192 139.875 33.2503C139.849 32.8968 139.689 32.5663 139.429 32.3255C139.169 32.0847 138.827 31.9513 138.473 31.9523C138.305 31.9494 138.139 31.9817 137.984 32.047C137.83 32.1124 137.691 32.2093 137.577 32.3316C137.462 32.4539 137.375 32.5988 137.32 32.7571C137.264 32.9153 137.243 33.0834 137.257 33.2503Z" fill="white"/>
<path d="M130.923 33.2502C130.952 33.6001 131.109 33.9267 131.366 34.1666C131.622 34.4066 131.958 34.5426 132.309 34.5482C132.476 34.5503 132.642 34.5174 132.796 34.4518C132.95 34.3862 133.089 34.2893 133.203 34.1671C133.317 34.045 133.405 33.9004 133.46 33.7426C133.516 33.5847 133.538 33.417 133.525 33.2502C133.498 32.8995 133.341 32.5714 133.085 32.331C132.828 32.0906 132.49 31.9554 132.139 31.9522C131.971 31.9502 131.805 31.983 131.652 32.0487C131.498 32.1143 131.359 32.2112 131.245 32.3333C131.13 32.4555 131.043 32.6 130.987 32.7579C130.932 32.9158 130.91 33.0834 130.923 33.2502Z" fill="white"/>
<path d="M210.489 196.644H112.373C111.85 196.649 111.332 196.546 110.852 196.34C110.371 196.134 109.939 195.831 109.582 195.449C109.225 195.068 108.951 194.616 108.779 194.123C108.606 193.629 108.537 193.106 108.578 192.585L114.122 106.713C114.205 105.618 114.695 104.595 115.495 103.842C116.295 103.09 117.347 102.665 118.445 102.649H216.556C217.079 102.644 217.597 102.748 218.078 102.954C218.559 103.16 218.991 103.464 219.349 103.846C219.706 104.228 219.98 104.68 220.153 105.174C220.327 105.667 220.396 106.192 220.356 106.713L214.812 192.585C214.727 193.678 214.237 194.701 213.437 195.452C212.637 196.203 211.586 196.628 210.489 196.644Z" fill="#F5F5F5"/>
<path d="M110.328 192.069L115.543 111.29C115.601 110.513 115.949 109.785 116.517 109.251C117.085 108.717 117.832 108.414 118.612 108.403H215.672C216.044 108.398 216.413 108.47 216.756 108.616C217.098 108.762 217.406 108.978 217.66 109.25C217.915 109.521 218.109 109.843 218.232 110.195C218.354 110.546 218.402 110.919 218.372 111.29L213.153 192.069C213.095 192.847 212.748 193.575 212.18 194.109C211.612 194.644 210.864 194.946 210.084 194.956H113.024C112.652 194.96 112.283 194.887 111.942 194.741C111.6 194.595 111.292 194.379 111.039 194.107C110.785 193.835 110.591 193.514 110.469 193.163C110.346 192.812 110.299 192.439 110.328 192.069Z" fill="white"/>
<path d="M170.122 163.914H140.218L143.347 113.193H173.257L170.122 163.914Z" fill="#F5F5F5"/>
<path d="M201.01 189.488H168.999L172.354 135.197H204.365L201.01 189.488Z" fill="#F5F5F5"/>
<path d="M216.547 102.649H118.458C117.361 102.665 116.308 103.09 115.509 103.842C114.709 104.595 114.219 105.618 114.135 106.713H220.348C220.387 106.192 220.318 105.667 220.145 105.174C219.971 104.68 219.697 104.228 219.34 103.846C218.983 103.464 218.55 103.16 218.069 102.954C217.589 102.748 217.07 102.644 216.547 102.649Z" fill="#EBEBEB"/>
<path d="M120.851 104.677C120.832 104.942 120.714 105.19 120.52 105.373C120.327 105.555 120.072 105.658 119.806 105.661C119.679 105.663 119.553 105.639 119.436 105.589C119.319 105.54 119.214 105.466 119.127 105.373C119.04 105.281 118.973 105.171 118.931 105.051C118.889 104.931 118.872 104.804 118.882 104.677C118.91 104.414 119.031 104.17 119.224 103.989C119.417 103.808 119.669 103.703 119.933 103.692C120.06 103.69 120.185 103.715 120.302 103.765C120.419 103.814 120.524 103.888 120.611 103.981C120.697 104.074 120.763 104.183 120.805 104.303C120.846 104.423 120.862 104.551 120.851 104.677Z" fill="white"/>
<path d="M125.647 104.677C125.627 104.942 125.509 105.19 125.316 105.373C125.122 105.555 124.867 105.658 124.602 105.661C124.475 105.663 124.348 105.639 124.231 105.589C124.114 105.539 124.009 105.466 123.922 105.373C123.835 105.281 123.768 105.171 123.726 105.051C123.684 104.931 123.668 104.804 123.678 104.677C123.698 104.411 123.817 104.163 124.012 103.981C124.206 103.799 124.462 103.696 124.728 103.692C124.855 103.692 124.98 103.718 125.096 103.768C125.212 103.818 125.316 103.892 125.402 103.984C125.488 104.077 125.555 104.186 125.597 104.305C125.639 104.424 125.656 104.551 125.647 104.677Z" fill="white"/>
<path d="M130.455 104.679C130.432 104.939 130.315 105.182 130.125 105.361C129.936 105.54 129.687 105.644 129.426 105.653C129.299 105.655 129.173 105.63 129.057 105.58C128.94 105.531 128.835 105.457 128.748 105.364C128.662 105.272 128.596 105.162 128.554 105.042C128.513 104.922 128.497 104.795 128.508 104.668C128.528 104.403 128.647 104.156 128.84 103.974C129.033 103.792 129.287 103.688 129.553 103.684C129.679 103.685 129.803 103.713 129.918 103.765C130.033 103.817 130.136 103.892 130.22 103.985C130.305 104.079 130.369 104.188 130.41 104.308C130.45 104.427 130.465 104.554 130.455 104.679Z" fill="white"/>
<path d="M220.858 53.7848L220.398 59.8105L221.084 59.8628L221.543 53.8371L220.858 53.7848Z" fill="#00008D"/>
<path d="M222.641 30.6856L221.361 47.4395L222.046 47.4918L223.327 30.7379L222.641 30.6856Z" fill="#00008D"/>
<path d="M222.901 4.81055H104.649L89.5991 201.308H207.851L222.901 4.81055Z" fill="#00008D"/>
<g opacity="0.7">
<path d="M218.469 0H100.217L85.1675 196.497H203.42L218.469 0Z" fill="#00008D"/>
<path opacity="0.9" d="M218.469 0H100.217L85.1675 196.497H203.42L218.469 0Z" fill="white"/>
</g>
<path d="M132.237 22.7555H109.322L109.769 16.8979H132.683L132.237 22.7555Z" fill="#00008D"/>
<path d="M171.207 35.6291H108.333L108.787 29.7715H171.653L171.207 35.6291Z" fill="white"/>
<path d="M190.815 22.7555H139.1L139.547 16.8979H191.269L190.815 22.7555Z" fill="white"/>
<path d="M164.942 61.3859H191.989L192.436 55.5352H165.396L164.942 61.3859Z" fill="white"/>
<path d="M180.895 42.6572H107.792L107.345 48.5148H180.448L180.895 42.6572Z" fill="white"/>
<path d="M106.357 61.3859H158.072L158.525 55.5352H106.811L106.357 61.3859Z" fill="#00008D"/>
<path d="M128.283 74.2746H105.369L105.816 68.417H128.73L128.283 74.2746Z" fill="#00008D"/>
<path d="M144.373 87.1456H104.38L104.827 81.2949H144.82L144.373 87.1456Z" fill="white"/>
<path d="M180.931 87.1456H151.251L151.698 81.2949H181.378L180.931 87.1456Z" fill="white"/>
<path d="M186.87 74.2746H135.155L135.602 68.417H187.324L186.87 74.2746Z" fill="white"/>
<path d="M160.989 112.912H188.036L188.482 107.055H161.443L160.989 112.912Z" fill="#00008D"/>
<path d="M176.942 94.1768H103.839L103.392 100.034H176.495L176.942 94.1768Z" fill="white"/>
<path d="M102.404 112.912H154.119L154.572 107.055H102.851L102.404 112.912Z" fill="white"/>
<path opacity="0.4" d="M199.127 166.543H98.2959L101.472 125.059H202.31L199.127 166.543Z" fill="#FCFCFD"/>
<path opacity="0.4" d="M198.46 175.251H97.629L96.749 186.712H197.587L198.46 175.251Z" fill="white"/>
<path d="M25.4475 82.6047C25.725 82.6162 26.0015 82.5653 26.2567 82.4557C26.5119 82.3461 26.7393 82.1806 26.922 81.9714C27.1048 81.7623 27.2383 81.5148 27.3127 81.2472C27.3871 80.9796 27.4005 80.6988 27.3519 80.4253C27.2499 79.8372 26.9464 79.3029 26.4936 78.9141C26.0407 78.5252 25.4667 78.306 24.87 78.294C24.587 78.2915 24.307 78.3519 24.0502 78.4708C23.7933 78.5897 23.5661 78.7641 23.3849 78.9815C23.2073 79.1897 23.0771 79.4341 23.0035 79.6977C22.9299 79.9613 22.9146 80.2377 22.9587 80.5078C23.0692 81.0902 23.3771 81.6166 23.8304 81.9986C24.2837 82.3805 24.8548 82.5946 25.4475 82.6047ZM23.6393 79.1672C23.7942 78.9932 23.9852 78.8551 24.1989 78.7624C24.4126 78.6698 24.644 78.6249 24.8768 78.6309C25.3958 78.6394 25.8954 78.8288 26.2896 79.1665C26.6837 79.5041 26.9476 79.9688 27.0356 80.4803C27.0727 80.7046 27.0612 80.9342 27.0019 81.1536C26.9426 81.373 26.8369 81.5771 26.6919 81.7522C26.5361 81.9251 26.345 82.0625 26.1315 82.155C25.9179 82.2475 25.687 82.293 25.4544 82.2884C24.9365 82.276 24.4389 82.0852 24.0456 81.7482C23.6522 81.4113 23.3873 80.9488 23.2956 80.439C23.2556 80.2137 23.2657 79.9824 23.3251 79.7614C23.3845 79.5404 23.4918 79.3352 23.6393 79.1603V79.1672Z" fill="white"/>
<path d="M30.5427 71.8412C30.2626 71.8355 29.9845 71.8909 29.728 72.0037C29.4715 72.1165 29.2427 72.284 29.0577 72.4944C28.8792 72.702 28.7485 72.9464 28.6749 73.2101C28.6012 73.4738 28.5864 73.7505 28.6314 74.0206C28.7347 74.6082 29.0385 75.1417 29.491 75.5304C29.9436 75.919 30.5169 76.1387 31.1133 76.1519C31.3927 76.1567 31.6698 76.1015 31.926 75.99C32.1822 75.8785 32.4115 75.7134 32.5984 75.5057C32.7742 75.2952 32.9026 75.0493 32.975 74.7847C33.0473 74.5202 33.0619 74.2432 33.0177 73.9725C32.916 73.3855 32.6135 72.8521 32.1621 72.4634C31.7107 72.0747 31.1383 71.8548 30.5427 71.8412ZM32.3577 75.2788C32.2031 75.4531 32.0122 75.5915 31.7984 75.6841C31.5846 75.7768 31.3531 75.8215 31.1202 75.815C30.602 75.8039 30.1037 75.6136 29.7101 75.2764C29.3165 74.9392 29.0519 74.476 28.9614 73.9656C28.924 73.742 28.936 73.5128 28.9966 73.2943C29.0572 73.0757 29.1648 72.8731 29.3121 72.7006C29.4657 72.5251 29.6565 72.386 29.8705 72.2933C30.0845 72.2005 30.3165 72.1565 30.5496 72.1644C31.0685 72.1729 31.5682 72.3623 31.9623 72.6999C32.3565 73.0376 32.6203 73.5023 32.7084 74.0138C32.7448 74.2374 32.7324 74.4663 32.6718 74.6847C32.6113 74.9031 32.5041 75.1058 32.3577 75.2788Z" fill="white"/>
<path d="M30.8276 86.8845C30.7905 86.6602 30.8021 86.4307 30.8614 86.2112C30.9207 85.9918 31.0264 85.7877 31.1714 85.6126C31.3279 85.4408 31.5192 85.3041 31.7326 85.2117C31.9459 85.1192 32.1764 85.0731 32.4089 85.0763C32.7401 85.0837 33.0655 85.1647 33.3616 85.3133C33.6577 85.4619 33.917 85.6745 34.1208 85.9357C34.1827 85.8326 34.2308 85.7364 34.2927 85.6401C34.0584 85.3684 33.7696 85.1491 33.4451 84.9963C33.1206 84.8435 32.7675 84.7607 32.4089 84.7532C32.1295 84.7484 31.8524 84.8036 31.5962 84.9151C31.34 85.0266 31.1107 85.1918 30.9238 85.3995C30.748 85.61 30.6196 85.8558 30.5472 86.1204C30.4749 86.3849 30.4603 86.6619 30.5045 86.9326C30.527 87.0603 30.5568 87.1865 30.5938 87.3108L30.9995 87.4276C30.9146 87.2565 30.8566 87.0733 30.8276 86.8845Z" fill="white"/>
<path d="M36.7978 69.6849C36.9479 69.6829 37.0975 69.6668 37.2446 69.6368L37.1415 69.3206C37.0272 69.3311 36.9121 69.3311 36.7978 69.3206C36.388 69.3107 35.9886 69.1898 35.6423 68.9706C35.296 68.7514 35.0157 68.4423 34.8315 68.0762L34.5015 68.1243C34.6968 68.5754 35.0164 68.9617 35.423 69.238C35.8296 69.5143 36.3064 69.6694 36.7978 69.6849Z" fill="white"/>
<path d="M36.4996 80.4226C36.4621 80.1978 36.474 79.9676 36.5346 79.7479C36.5952 79.5283 36.7029 79.3245 36.8502 79.1507C36.9759 79.0057 37.1304 78.8886 37.304 78.8069C37.3384 78.6694 37.3659 78.5457 37.3934 78.415C37.087 78.5136 36.8136 78.6944 36.6027 78.9376C36.4245 79.1468 36.2941 79.3923 36.2205 79.6571C36.1468 79.9219 36.1318 80.1995 36.1765 80.4707C36.221 80.7697 36.3238 81.057 36.479 81.3163C36.534 81.172 36.5821 81.0345 36.6371 80.8969C36.5706 80.7456 36.5244 80.5861 36.4996 80.4226Z" fill="white"/>
<path d="M30.5447 72.1659C31.0637 72.1744 31.5633 72.3639 31.9575 72.7015C32.3516 73.0392 32.6155 73.5039 32.7035 74.0153C32.7409 74.2385 32.7296 74.4671 32.6702 74.6855C32.6109 74.9039 32.505 75.1068 32.3598 75.2804C32.2052 75.4547 32.0143 75.5931 31.8005 75.6857C31.5867 75.7784 31.3552 75.823 31.1222 75.8166C30.7569 75.8084 30.3991 75.7108 30.0803 75.5322C29.7614 75.3536 29.4913 75.0995 29.2935 74.7922C29.2935 74.971 29.2935 75.1497 29.2935 75.3354C29.5252 75.5847 29.8047 75.785 30.1153 75.9243C30.4259 76.0637 30.7613 76.1393 31.1016 76.1466C31.381 76.1514 31.6581 76.0962 31.9143 75.9847C32.1705 75.8732 32.3998 75.7081 32.5866 75.5004C32.7625 75.2899 32.8909 75.044 32.9633 74.7795C33.0356 74.5149 33.0502 74.2379 33.006 73.9672C32.904 73.3791 32.6006 72.8448 32.1477 72.456C31.6949 72.0671 31.1209 71.8479 30.5241 71.8359C30.289 71.8386 30.0563 71.8828 29.8366 71.9666C29.7747 72.1109 29.7197 72.2553 29.6647 72.4066C29.9308 72.2479 30.235 72.1647 30.5447 72.1659Z" fill="white"/>
<path d="M32.9754 89.0628C33.2584 89.0653 33.5384 89.0049 33.7953 88.8861C34.0521 88.7672 34.2793 88.5927 34.4605 88.3753C34.6385 88.1674 34.7689 87.923 34.8426 87.6594C34.9162 87.3957 34.9313 87.1192 34.8867 86.8491C34.7835 86.2615 34.4797 85.728 34.0271 85.3393C33.5745 84.9507 33.0012 84.731 32.4048 84.7178C32.1709 84.7199 31.9388 84.7594 31.7173 84.8346C31.7173 84.9447 31.7723 85.0478 31.7929 85.1509C31.9859 85.0854 32.1874 85.0483 32.3911 85.0409C32.9098 85.0536 33.4083 85.2454 33.8017 85.5838C34.1952 85.9221 34.4595 86.3862 34.5498 86.8972C34.5873 87.1208 34.5753 87.35 34.5147 87.5685C34.4541 87.7871 34.3464 87.9897 34.1992 88.1622C34.0455 88.3377 33.8548 88.4768 33.6408 88.5696C33.4268 88.6623 33.1948 88.7063 32.9617 88.6985C32.8518 88.7053 32.7416 88.7053 32.6317 88.6985C32.6317 88.8085 32.6798 88.9185 32.7073 89.0285C32.7919 89.0356 32.877 89.0356 32.9617 89.0285L32.9754 89.0628Z" fill="white"/>
<path d="M36.4349 99.8385C36.4754 100.059 36.4668 100.285 36.4097 100.501C36.3526 100.718 36.2484 100.919 36.1045 101.09C35.9607 101.262 35.7808 101.399 35.5776 101.493C35.3744 101.587 35.153 101.635 34.9292 101.633C34.9292 101.743 34.9292 101.846 34.9636 101.956C35.2244 101.949 35.481 101.889 35.7175 101.779C35.954 101.669 36.1655 101.512 36.3386 101.317C36.5155 101.108 36.6447 100.864 36.7171 100.6C36.7895 100.336 36.8035 100.06 36.758 99.7904C36.6605 99.2248 36.3757 98.7084 35.9492 98.3243C35.5227 97.9403 34.9794 97.7108 34.4067 97.6729C34.4067 97.7829 34.4067 97.8929 34.4549 98.0029C34.9396 98.052 35.395 98.2578 35.7523 98.5891C36.1096 98.9203 36.3492 99.3589 36.4349 99.8385Z" fill="white"/>
<path d="M38.6333 112.716C38.5301 112.129 38.2263 111.595 37.7737 111.207C37.3211 110.818 36.7478 110.598 36.1514 110.585C35.8547 110.582 35.561 110.645 35.292 110.771C35.292 110.894 35.292 111.025 35.292 111.156C35.5539 110.993 35.8566 110.907 36.1651 110.908C36.6829 110.921 37.1806 111.111 37.5739 111.448C37.9673 111.785 38.2322 112.248 38.3239 112.758V112.833H38.6539C38.6333 112.792 38.6402 112.758 38.6333 112.716Z" fill="white"/>
<path d="M36.798 69.6787C37.0807 69.6798 37.3603 69.6188 37.6169 69.5C37.8735 69.3812 38.1008 69.2075 38.283 68.9912C38.6026 68.6077 38.7582 68.1137 38.7161 67.6162H38.3861C38.4229 68.0236 38.2968 68.429 38.0355 68.7437C37.8797 68.9166 37.6886 69.054 37.4751 69.1465C37.2615 69.2391 37.0306 69.2846 36.798 69.28C36.3724 69.2699 35.9585 69.1392 35.6043 68.903C35.2502 68.6669 34.9703 68.3351 34.7973 67.9462L34.4673 68.015C34.6501 68.4901 34.9685 68.901 35.3828 69.1968C35.7971 69.4926 36.2892 69.6602 36.798 69.6787Z" fill="white"/>
<path d="M38.0729 78.2854C37.7952 78.2741 37.5184 78.3251 37.263 78.4347C37.0076 78.5442 36.7799 78.7096 36.5966 78.9185C36.4134 79.1275 36.2792 79.3748 36.2039 79.6423C36.1286 79.9099 36.1142 80.1909 36.1616 80.4648C36.2648 81.0523 36.5686 81.5858 37.0212 81.9745C37.4738 82.3631 38.0471 82.5828 38.6435 82.596C38.9265 82.5985 39.2065 82.5382 39.4633 82.4193C39.7201 82.3004 39.9473 82.1259 40.1285 81.9085C40.3062 81.7004 40.4363 81.456 40.51 81.1924C40.5836 80.9288 40.5989 80.6523 40.5548 80.3823C40.4515 79.7947 40.1477 79.2612 39.6952 78.8725C39.2426 78.4839 38.6693 78.2642 38.0729 78.251V78.2854ZM40.2317 80.4579C40.2696 80.6826 40.2579 80.913 40.1973 81.1327C40.1368 81.3524 40.0288 81.5562 39.881 81.7298C39.7261 81.9038 39.5352 82.0419 39.3214 82.1345C39.1077 82.2271 38.8764 82.272 38.6435 82.266C38.1249 82.2562 37.626 82.0663 37.2321 81.7289C36.8382 81.3915 36.574 80.9275 36.4847 80.4166C36.4472 80.1919 36.4591 79.9617 36.5197 79.742C36.5803 79.5223 36.688 79.3185 36.8353 79.1447C36.9902 78.9708 37.1812 78.8326 37.3949 78.74C37.6086 78.6474 37.84 78.6025 38.0729 78.6085C38.5914 78.6183 39.0904 78.8082 39.4843 79.1456C39.8782 79.483 40.1424 79.947 40.2317 80.4579Z" fill="white"/>
<path d="M40.5178 95.5203C40.7977 95.5247 41.0753 95.4686 41.3316 95.3559C41.5879 95.2432 41.8168 95.0765 42.0028 94.8672C42.1814 94.6584 42.3117 94.4126 42.3842 94.1476C42.4567 93.8825 42.4696 93.6047 42.4222 93.334C42.3201 92.7459 42.0167 92.2116 41.5639 91.8228C41.111 91.4339 40.537 91.2147 39.9403 91.2028C39.6606 91.1957 39.3827 91.2498 39.1262 91.3615C38.8696 91.4731 38.6406 91.6395 38.4552 91.849C38.2766 92.0578 38.1463 92.3036 38.0738 92.5686C38.0013 92.8337 37.9884 93.1115 38.0358 93.3822C38.1379 93.9703 38.4413 94.5046 38.8941 94.8934C39.347 95.2823 39.921 95.5015 40.5178 95.5134V95.5203ZM38.359 93.3409C38.3181 93.1167 38.3278 92.8862 38.3873 92.6662C38.4467 92.4461 38.5545 92.2421 38.7027 92.069C38.8576 91.895 39.0486 91.7569 39.2623 91.6643C39.476 91.5717 39.7074 91.5268 39.9403 91.5328C40.4588 91.5426 40.9578 91.7325 41.3517 92.0699C41.7455 92.4073 42.0098 92.8713 42.099 93.3822C42.1399 93.6064 42.1302 93.8369 42.0707 94.0569C42.0113 94.2769 41.9035 94.4809 41.7553 94.6541C41.6001 94.8277 41.4091 94.9655 41.1954 95.0581C40.9818 95.1507 40.7506 95.1958 40.5178 95.1903C39.9992 95.1805 39.5002 94.9906 39.1063 94.6532C38.7125 94.3158 38.4482 93.8518 38.359 93.3409Z" fill="white"/>
<path d="M42.3735 108.432C42.6512 108.444 42.9279 108.393 43.1833 108.283C43.4388 108.173 43.6665 108.008 43.8497 107.799C44.033 107.59 44.1671 107.343 44.2424 107.075C44.3177 106.808 44.3322 106.527 44.2848 106.253C44.1801 105.667 43.8757 105.135 43.4232 104.747C42.9708 104.36 42.3982 104.141 41.8028 104.128C41.5251 104.117 41.2484 104.168 40.993 104.278C40.7376 104.387 40.5099 104.553 40.3266 104.762C40.1434 104.971 40.0092 105.218 39.9339 105.485C39.8586 105.753 39.8442 106.034 39.8916 106.308C39.995 106.895 40.2991 107.427 40.7518 107.815C41.2045 108.202 41.7777 108.421 42.3735 108.432ZM40.5653 104.995C40.7202 104.821 40.9112 104.683 41.1249 104.59C41.3386 104.497 41.57 104.453 41.8028 104.458C42.321 104.47 42.8193 104.66 43.2129 104.997C43.6066 105.334 43.8711 105.798 43.9616 106.308C43.9996 106.533 43.9879 106.763 43.9273 106.983C43.8668 107.202 43.7588 107.406 43.611 107.58C43.4561 107.754 43.2652 107.892 43.0514 107.984C42.8377 108.077 42.6063 108.122 42.3735 108.116C41.8549 108.106 41.3559 107.916 40.9621 107.579C40.5682 107.241 40.304 106.778 40.2147 106.267C40.1757 106.041 40.1869 105.809 40.2475 105.588C40.3081 105.367 40.4166 105.162 40.5653 104.988V104.995Z" fill="white"/>
<path d="M48.0427 101.963C48.3204 101.974 48.5971 101.923 48.8525 101.813C49.1079 101.704 49.3356 101.538 49.5189 101.329C49.7021 101.12 49.8363 100.873 49.9116 100.606C49.9869 100.338 50.0013 100.057 49.9539 99.7832C49.8507 99.1957 49.5469 98.6621 49.0943 98.2735C48.6417 97.8848 48.0684 97.6652 47.472 97.6519C47.1917 97.6452 46.9134 97.7002 46.6568 97.8131C46.4001 97.926 46.1715 98.0939 45.987 98.305C45.8093 98.5132 45.6792 98.7576 45.6056 99.0212C45.5319 99.2848 45.5167 99.5612 45.5607 99.8313C45.664 100.419 45.9678 100.952 46.4204 101.341C46.8729 101.73 47.4463 101.949 48.0427 101.963ZM46.2345 98.5251C46.3894 98.3511 46.5803 98.213 46.7941 98.1203C47.0078 98.0277 47.2392 97.9828 47.472 97.9888C47.9906 97.9986 48.4896 98.1885 48.8834 98.5259C49.2773 98.8634 49.5415 99.3273 49.6308 99.8382C49.6679 100.062 49.6564 100.292 49.597 100.511C49.5377 100.731 49.432 100.935 49.2871 101.11C49.1305 101.284 48.9383 101.422 48.7235 101.514C48.5087 101.607 48.2765 101.652 48.0427 101.646C47.5245 101.635 47.0262 101.445 46.6326 101.108C46.2389 100.77 45.9744 100.307 45.8839 99.7969C45.8448 99.5711 45.856 99.3395 45.9166 99.1185C45.9772 98.8975 46.0857 98.6925 46.2345 98.5182V98.5251Z" fill="white"/>
<path d="M51.8305 112.709C51.7272 112.121 51.4234 111.588 50.9708 111.199C50.5183 110.81 49.9449 110.591 49.3485 110.577C49.0684 110.572 48.7906 110.628 48.5341 110.741C48.2777 110.853 48.0489 111.021 47.8635 111.231C47.6866 111.439 47.5575 111.684 47.4851 111.947C47.4126 112.211 47.3986 112.487 47.4441 112.757C47.441 112.784 47.441 112.812 47.4441 112.839H47.8016C47.8016 112.798 47.8016 112.757 47.8016 112.716C47.7641 112.491 47.7754 112.262 47.8347 112.042C47.894 111.823 48 111.619 48.1454 111.444C48.3011 111.271 48.4923 111.133 48.7058 111.041C48.9193 110.948 49.1502 110.903 49.3829 110.908C49.9011 110.919 50.3994 111.109 50.793 111.446C51.1866 111.783 51.4512 112.247 51.5417 112.757V112.839H51.8648C51.8569 112.795 51.8454 112.751 51.8305 112.709Z" fill="white"/>
<path d="M47.5025 67.5373C47.6057 68.1248 47.9095 68.6583 48.3621 69.047C48.8147 69.4356 49.388 69.6553 49.9844 69.6685C50.264 69.6747 50.5415 69.6201 50.7979 69.5085C51.0543 69.397 51.2834 69.2311 51.4694 69.0223C51.7866 68.6377 51.9397 68.1438 51.8957 67.6473H51.5726C51.5997 67.8622 51.5827 68.0804 51.5224 68.2885C51.4621 68.4966 51.3598 68.6902 51.2219 68.8573C51.0662 69.0302 50.8751 69.1676 50.6615 69.2601C50.448 69.3526 50.2171 69.3981 49.9844 69.3935C49.4666 69.3811 48.969 69.1903 48.5756 68.8533C48.1823 68.5164 47.9173 68.0539 47.8256 67.5441V67.4685H47.4956C47.5025 67.4548 47.4956 67.496 47.5025 67.5373Z" fill="white"/>
<path d="M51.2633 78.2728C50.9833 78.2675 50.7054 78.3232 50.4489 78.4359C50.1925 78.5487 49.9637 78.7159 49.7783 78.9259C49.6031 79.1354 49.4749 79.3801 49.4025 79.6434C49.3302 79.9068 49.3153 80.1826 49.3589 80.4522C49.4609 81.0403 49.7644 81.5746 50.2172 81.9635C50.6701 82.3523 51.2441 82.5715 51.8408 82.5835C52.1204 82.5897 52.398 82.5351 52.6544 82.4235C52.9107 82.3119 53.1399 82.146 53.3259 81.9372C53.5041 81.728 53.6345 81.4825 53.7082 81.2177C53.7818 80.9529 53.7968 80.6753 53.7521 80.4041C53.6489 79.8166 53.3451 79.283 52.8925 78.8944C52.4399 78.5057 51.8666 78.2861 51.2702 78.2728H51.2633ZM53.429 80.4522C53.4665 80.677 53.4546 80.9072 53.394 81.1269C53.3335 81.3465 53.2257 81.5503 53.0784 81.7241C52.9235 81.8981 52.7325 82.0362 52.5188 82.1288C52.3051 82.2214 52.0737 82.2663 51.8408 82.2604C51.3223 82.2506 50.8233 82.0607 50.4294 81.7232C50.0356 81.3858 49.7713 80.9219 49.6821 80.411C49.6445 80.1867 49.6558 79.957 49.7152 79.7375C49.7745 79.518 49.8804 79.3139 50.0258 79.1391C50.1816 78.9662 50.3727 78.8288 50.5862 78.7363C50.7997 78.6437 51.0307 78.5982 51.2633 78.6028C51.7827 78.6124 52.2826 78.802 52.6777 79.1393C53.0727 79.4767 53.3383 79.9407 53.429 80.4522Z" fill="white"/>
<path d="M53.1443 91.1988C52.864 91.1921 52.5857 91.2471 52.3291 91.36C52.0724 91.4729 51.8438 91.6408 51.6593 91.8519C51.4812 92.0599 51.3508 92.3042 51.2772 92.5679C51.2035 92.8315 51.1885 93.1081 51.233 93.3782C51.3363 93.9657 51.6401 94.4993 52.0927 94.8879C52.5452 95.2765 53.1186 95.4962 53.715 95.5095C53.9943 95.5143 54.2714 95.4591 54.5276 95.3476C54.7838 95.2361 55.0131 95.0709 55.2 94.8632C55.3758 94.6527 55.5042 94.4068 55.5766 94.1423C55.649 93.8778 55.6635 93.6008 55.6194 93.3301C55.5176 92.7431 55.2151 92.2097 54.7637 91.821C54.3123 91.4323 53.7399 91.2123 53.1443 91.1988ZM54.9594 94.6363C54.8028 94.8082 54.6115 94.9448 54.3981 95.0373C54.1848 95.1297 53.9543 95.1758 53.7218 95.1726C53.203 95.1599 52.7046 94.9681 52.3111 94.6297C51.9177 94.2914 51.6533 93.8273 51.563 93.3163C51.5256 93.0927 51.5376 92.8635 51.5982 92.645C51.6588 92.4264 51.7664 92.2238 51.9137 92.0513C52.0673 91.8758 52.2581 91.7367 52.4721 91.644C52.6861 91.5512 52.9181 91.5072 53.1512 91.515C53.6701 91.5235 54.1698 91.713 54.5639 92.0506C54.9581 92.3883 55.2219 92.853 55.31 93.3645C55.3482 93.5914 55.3366 93.8238 55.276 94.0458C55.2155 94.2678 55.1074 94.474 54.9594 94.6501V94.6363Z" fill="white"/>
<path d="M55.5816 108.421C55.8611 108.427 56.1387 108.373 56.3951 108.261C56.6515 108.15 56.8806 107.984 57.0666 107.775C57.2448 107.566 57.3753 107.32 57.4489 107.056C57.5225 106.791 57.5375 106.513 57.4928 106.242C57.3896 105.654 57.0858 105.121 56.6332 104.732C56.1806 104.344 55.6073 104.124 55.0109 104.111C54.7316 104.106 54.4544 104.161 54.1982 104.273C53.9421 104.384 53.7128 104.549 53.5259 104.757C53.3501 104.967 53.2216 105.213 53.1493 105.478C53.0769 105.742 53.0623 106.019 53.1065 106.29C53.2095 106.876 53.5123 107.409 53.9635 107.798C54.4146 108.186 54.9864 108.406 55.5816 108.421ZM53.7665 104.984C53.9211 104.809 54.112 104.671 54.3258 104.578C54.5396 104.486 54.7711 104.441 55.004 104.448C55.5222 104.459 56.0205 104.649 56.4142 104.986C56.8078 105.323 57.0723 105.787 57.1628 106.297C57.2002 106.521 57.1883 106.75 57.1277 106.968C57.0671 107.187 56.9594 107.389 56.8122 107.562C56.6585 107.737 56.4678 107.877 56.2538 107.969C56.0398 108.062 55.8078 108.106 55.5747 108.098C55.0558 108.09 54.5561 107.9 54.1619 107.563C53.7678 107.225 53.5039 106.76 53.4159 106.249C53.3784 106.024 53.3903 105.794 53.4509 105.574C53.5114 105.354 53.6191 105.151 53.7665 104.977V104.984Z" fill="white"/>
<path d="M55.0315 73.9943C55.1347 74.5819 55.4385 75.1154 55.8911 75.504C56.3437 75.8927 56.917 76.1123 57.5134 76.1256C57.7937 76.1323 58.072 76.0773 58.3286 75.9644C58.5853 75.8515 58.8139 75.6836 58.9984 75.4725C59.1769 75.2648 59.3076 75.0205 59.3812 74.7567C59.4549 74.493 59.4697 74.2163 59.4247 73.9462C59.3214 73.3587 59.0176 72.8251 58.565 72.4365C58.1125 72.0479 57.5391 71.8282 56.9427 71.8149C56.6632 71.8088 56.3856 71.8633 56.1292 71.9749C55.8729 72.0865 55.6437 72.2524 55.4577 72.4612C55.2795 72.6704 55.1491 72.9159 55.0754 73.1807C55.0018 73.4455 54.9868 73.7232 55.0315 73.9943ZM56.9427 72.1449C57.4609 72.156 57.9592 72.3464 58.3528 72.6836C58.7465 73.0208 59.011 73.484 59.1015 73.9943C59.139 74.218 59.1269 74.4471 59.0664 74.6657C59.0058 74.8842 58.8981 75.0868 58.7509 75.2593C58.5972 75.4348 58.4065 75.574 58.1925 75.6667C57.9785 75.7594 57.7465 75.8035 57.5134 75.7956C56.9945 75.7871 56.4948 75.5977 56.1006 75.26C55.7065 74.9224 55.4426 74.4577 55.3546 73.9462C55.3175 73.7219 55.3291 73.4923 55.3884 73.2729C55.4477 73.0535 55.5534 72.8494 55.6984 72.6743C55.8552 72.5014 56.0477 72.3645 56.2625 72.2732C56.4773 72.1818 56.7094 72.138 56.9427 72.1449Z" fill="white"/>
<path d="M59.3767 89.0339C59.6595 89.035 59.939 88.974 60.1956 88.8552C60.4522 88.7364 60.6796 88.5627 60.8617 88.3464C61.0386 88.1379 61.1677 87.8933 61.2402 87.6297C61.3126 87.366 61.3266 87.0898 61.2811 86.8202C61.1791 86.2321 60.8757 85.6978 60.4228 85.3089C59.97 84.9201 59.396 84.7008 58.7992 84.6889C58.5197 84.6832 58.2423 84.738 57.986 84.8495C57.7296 84.9611 57.5005 85.1267 57.3142 85.3351C57.136 85.5444 57.0055 85.7899 56.9319 86.0547C56.8583 86.3195 56.8433 86.5971 56.8879 86.8683C56.9842 87.4633 57.2859 88.0057 57.7406 88.4013C58.1952 88.797 58.7741 89.0208 59.3767 89.0339ZM57.5686 85.5964C57.7243 85.4235 57.9154 85.2861 58.1289 85.1936C58.3425 85.1011 58.5734 85.0556 58.8061 85.0601C59.3246 85.07 59.8236 85.2599 60.2175 85.5973C60.6114 85.9347 60.8756 86.3986 60.9649 86.9095C61.0038 87.1338 60.9932 87.3638 60.9338 87.5835C60.8744 87.8033 60.7677 88.0073 60.6211 88.1814C60.4665 88.3558 60.2756 88.4942 60.0618 88.5868C59.848 88.6794 59.6165 88.7241 59.3836 88.7177C58.8654 88.7066 58.3671 88.5162 57.9735 88.179C57.5799 87.8418 57.3153 87.3786 57.2248 86.8683C57.1864 86.644 57.1972 86.4141 57.2566 86.1945C57.3159 85.9748 57.4224 85.7708 57.5686 85.5964Z" fill="white"/>
<path d="M61.2456 101.96C61.5258 101.966 61.8042 101.911 62.0608 101.798C62.3174 101.686 62.5461 101.518 62.7306 101.307C62.9082 101.098 63.0384 100.854 63.112 100.59C63.1856 100.327 63.2009 100.05 63.1568 99.7803C63.0536 99.1927 62.7498 98.6592 62.2972 98.2706C61.8446 97.8819 61.2713 97.6623 60.6749 97.649C60.3972 97.6377 60.1205 97.6888 59.8651 97.7983C59.6096 97.9079 59.3819 98.0732 59.1987 98.2822C59.0154 98.4911 58.8812 98.7384 58.806 99.006C58.7307 99.2735 58.7162 99.5545 58.7636 99.8284C58.8669 100.416 59.1707 100.949 59.6233 101.338C60.0758 101.727 60.6492 101.946 61.2456 101.96ZM59.4305 98.5221C59.587 98.3483 59.7793 98.2104 59.9941 98.1179C60.2088 98.0253 60.4411 97.9803 60.6749 97.9859C61.1931 97.997 61.6914 98.1874 62.085 98.5246C62.4786 98.8618 62.7432 99.3249 62.8337 99.8353C62.8717 100.06 62.86 100.29 62.7994 100.51C62.7388 100.73 62.6309 100.934 62.4831 101.107C62.3282 101.281 62.1372 101.419 61.9235 101.512C61.7098 101.605 61.4784 101.649 61.2456 101.643C60.7266 101.635 60.2269 101.445 59.8328 101.108C59.4387 100.77 59.1748 100.306 59.0868 99.794C59.0477 99.5676 59.0581 99.3354 59.1175 99.1135C59.1768 98.8915 59.2836 98.6851 59.4305 98.5084V98.5221Z" fill="white"/>
<path d="M62.5463 110.573C62.2666 110.566 61.9887 110.62 61.7322 110.732C61.4757 110.843 61.2467 111.01 61.0612 111.219C60.883 111.428 60.7526 111.674 60.679 111.939C60.6053 112.203 60.5903 112.481 60.635 112.752V112.842H60.965C60.965 112.794 60.965 112.752 60.9306 112.704C60.8931 112.479 60.905 112.249 60.9656 112.03C61.0261 111.81 61.1339 111.606 61.2812 111.432C61.4361 111.258 61.6271 111.12 61.8408 111.028C62.0545 110.935 62.2859 110.89 62.5188 110.896C62.8976 110.905 63.2679 111.01 63.5959 111.2C63.9238 111.389 64.1988 111.659 64.3957 111.982L64.4369 111.487C64.2039 111.21 63.915 110.986 63.5892 110.828C63.2634 110.671 62.908 110.584 62.5463 110.573Z" fill="white"/>
<path d="M64.4709 78.5961C65.0568 78.6136 65.6123 78.8605 66.0178 79.2836C66.0178 79.1324 66.0178 78.9811 66.0178 78.8368C65.5814 78.4894 65.0424 78.2961 64.4847 78.2867C64.205 78.2797 63.9271 78.3338 63.6706 78.4455C63.4141 78.5571 63.1851 78.7235 62.9997 78.933C62.821 79.1418 62.6908 79.3876 62.6183 79.6526C62.5458 79.9177 62.5328 80.1955 62.5803 80.4662C62.6823 81.0543 62.9857 81.5885 63.4386 81.9774C63.8914 82.3663 64.4654 82.5855 65.0622 82.5974C65.4221 82.5924 65.7747 82.4953 66.0866 82.3156V81.9306C65.7915 82.1525 65.4314 82.2709 65.0622 82.2674C64.5436 82.2576 64.0447 82.0677 63.6508 81.7303C63.2569 81.3929 62.9927 80.9289 62.9034 80.418C62.8631 80.1938 62.873 79.9634 62.9324 79.7435C62.9918 79.5235 63.0993 79.3195 63.2472 79.1461C63.3995 78.9718 63.5878 78.8324 63.799 78.7375C64.0102 78.6426 64.2394 78.5943 64.4709 78.5961Z" fill="white"/>
<path d="M64.7464 93.3184C64.7085 93.0937 64.7202 92.8633 64.7807 92.6436C64.8413 92.4239 64.9493 92.2201 65.0971 92.0465C65.2805 91.8368 65.5185 91.6821 65.7846 91.5997V91.249C65.406 91.3368 65.0645 91.5412 64.8083 91.8334C64.6301 92.0426 64.4996 92.2882 64.426 92.553C64.3524 92.8177 64.3374 93.0954 64.3821 93.3666C64.4447 93.7325 64.5868 94.0804 64.7982 94.3856C65.0096 94.6908 65.2853 94.9461 65.6058 95.1335V94.7485C65.3749 94.579 65.1799 94.3653 65.0324 94.1198C64.8849 93.8743 64.7876 93.6019 64.7464 93.3184Z" fill="white"/>
<path opacity="0.6" d="M98.563 81.5517C94.8896 79.3724 91.9452 76.1525 90.1024 72.2993C88.2596 68.4461 87.6012 64.1329 88.2106 59.9054C88.82 55.6779 90.6697 51.7262 93.5257 48.5503C96.3816 45.3744 100.116 43.1171 104.255 42.064C108.394 41.0108 112.753 41.2093 116.779 42.6341C120.806 44.059 124.319 46.6463 126.875 50.0685C129.43 53.4908 130.913 57.5942 131.136 61.8596C131.359 66.125 130.311 70.3605 128.126 74.0303C125.199 78.943 120.442 82.4938 114.9 83.9038C109.358 85.3139 103.482 84.468 98.563 81.5517Z" fill="#00008D"/>
<mask id="mask0_1288_43978" style="mask-type:luminance" maskUnits="userSpaceOnUse" x="87" y="41" width="45" height="44">
<path d="M98.5679 81.5409C94.8945 79.3617 91.9501 76.1417 90.1073 72.2886C88.2645 68.4354 87.6061 64.1221 88.2155 59.8947C88.8248 55.6672 90.6745 51.7155 93.5305 48.5396C96.3865 45.3637 100.12 43.1063 104.26 42.0532C108.399 41.0001 112.758 41.1985 116.784 42.6234C120.811 44.0483 124.324 46.6355 126.88 50.0578C129.435 53.48 130.918 57.5835 131.141 61.8488C131.364 66.1142 130.316 70.3498 128.131 74.0196C125.203 78.9322 120.447 82.4831 114.905 83.8931C109.362 85.3031 103.487 84.4572 98.5679 81.5409Z" fill="white"/>
</mask>
<g mask="url(#mask0_1288_43978)">
<path d="M93.6681 46.3674L93.7283 45.5184C94.4774 45.0604 95.0381 44.5704 95.4105 44.0484L95.9745 43.9706L95.6343 48.8613L94.703 48.9897L94.9378 45.6209C94.7616 45.7722 94.5539 45.9168 94.3146 46.0549C94.0775 46.1927 93.862 46.2969 93.6681 46.3674ZM97.1464 47.0863C97.0809 46.6115 97.0951 46.1191 97.189 45.6092C97.3045 44.9868 97.497 44.5093 97.7664 44.1766C98.0357 43.8439 98.3595 43.6515 98.7376 43.5993C99.12 43.5466 99.4528 43.6419 99.7359 43.8852C100.021 44.1283 100.2 44.5141 100.273 45.0426C100.34 45.526 100.32 46.0497 100.214 46.6139C100.11 47.1756 99.925 47.6214 99.6597 47.9514C99.394 48.2792 99.07 48.4695 98.6876 48.5222C98.3052 48.575 97.9702 48.48 97.6828 48.2372C97.3975 47.9941 97.2187 47.6105 97.1464 47.0863ZM98.0809 47.1478C98.1159 47.4013 98.1813 47.574 98.2772 47.6659C98.3731 47.7578 98.4854 47.7948 98.6143 47.777C98.7862 47.7533 98.9278 47.6528 99.0391 47.4754C99.188 47.2381 99.2882 46.7974 99.3394 46.1533C99.3805 45.6419 99.3811 45.2412 99.3411 44.9511C99.3085 44.7148 99.2432 44.5509 99.1452 44.4593C99.049 44.3653 98.9365 44.3272 98.8076 44.345C98.6443 44.3675 98.5101 44.4659 98.405 44.6402C98.2495 44.8937 98.1436 45.3166 98.0874 45.9089C98.0398 46.4212 98.0377 46.8342 98.0809 47.1478ZM100.82 46.5795C100.755 46.1048 100.769 45.6124 100.863 45.1025C100.978 44.4801 101.171 44.0026 101.44 43.6699C101.709 43.3372 102.033 43.1447 102.411 43.0926C102.794 43.0398 103.127 43.1352 103.41 43.3785C103.695 43.6216 103.874 44.0074 103.947 44.5359C104.014 45.0193 103.994 45.543 103.888 46.1072C103.784 46.6689 103.599 47.1147 103.333 47.4446C103.068 47.7725 102.744 47.9627 102.361 48.0155C101.979 48.0682 101.644 47.9732 101.357 47.7305C101.071 47.4874 100.892 47.1038 100.82 46.5795ZM101.755 46.6411C101.79 46.8946 101.855 47.0673 101.951 47.1592C102.047 47.251 102.159 47.2881 102.288 47.2703C102.46 47.2466 102.602 47.1461 102.713 46.9687C102.862 46.7314 102.962 46.2907 103.013 45.6466C103.054 45.1352 103.055 44.7345 103.015 44.4444C102.982 44.2081 102.917 44.0441 102.819 43.9526C102.723 43.8586 102.61 43.8205 102.481 43.8382C102.318 43.8608 102.184 43.9592 102.079 44.1335C101.923 44.387 101.817 44.8099 101.761 45.4022C101.714 45.9145 101.711 46.3274 101.755 46.6411ZM104.689 44.8472L104.75 43.9983C105.499 43.5403 106.059 43.0503 106.432 42.5282L106.996 42.4504L106.656 47.3411L105.724 47.4695L105.959 44.1007C105.783 44.252 105.575 44.3967 105.336 44.5348C105.099 44.6726 104.883 44.7767 104.689 44.8472ZM108.168 45.5661C108.102 45.0913 108.116 44.599 108.21 44.089C108.326 43.4667 108.518 42.9891 108.788 42.6564C109.057 42.3237 109.381 42.1313 109.759 42.0792C110.141 42.0264 110.474 42.1217 110.757 42.3651C111.042 42.6081 111.222 42.9939 111.294 43.5224C111.361 44.0058 111.341 44.5296 111.235 45.0937C111.131 45.6554 110.946 46.1012 110.681 46.4312C110.415 46.759 110.091 46.9493 109.709 47.002C109.326 47.0548 108.991 46.9598 108.704 46.717C108.419 46.4739 108.24 46.0903 108.168 45.5661ZM109.102 45.6277C109.137 45.8812 109.203 46.0539 109.298 46.1457C109.394 46.2376 109.507 46.2746 109.636 46.2569C109.807 46.2331 109.949 46.1326 110.06 45.9553C110.209 45.718 110.309 45.2773 110.361 44.6331C110.402 44.1217 110.402 43.721 110.362 43.431C110.33 43.1946 110.264 43.0307 110.166 42.9391C110.07 42.8451 109.958 42.807 109.829 42.8248C109.666 42.8473 109.531 42.9457 109.426 43.12C109.271 43.3736 109.165 43.7965 109.109 44.3887C109.061 44.901 109.059 45.314 109.102 45.6277ZM111.841 45.0594C111.776 44.5846 111.79 44.0922 111.884 43.5823C112 42.96 112.192 42.4824 112.461 42.1497C112.731 41.817 113.054 41.6246 113.433 41.5724C113.815 41.5197 114.148 41.615 114.431 41.8583C114.716 42.1014 114.895 42.4872 114.968 43.0157C115.035 43.4991 115.015 44.0229 114.909 44.587C114.805 45.1487 114.62 45.5945 114.355 45.9245C114.089 46.2523 113.765 46.4426 113.383 46.4953C113 46.5481 112.665 46.4531 112.378 46.2103C112.093 45.9672 111.914 45.5836 111.841 45.0594ZM112.776 45.1209C112.811 45.3745 112.876 45.5471 112.972 45.639C113.068 45.7309 113.18 45.7679 113.309 45.7501C113.481 45.7264 113.623 45.6259 113.734 45.4485C113.883 45.2113 113.983 44.7705 114.034 44.1264C114.076 43.615 114.076 43.2143 114.036 42.9242C114.004 42.6879 113.938 42.524 113.84 42.4324C113.744 42.3384 113.632 42.3003 113.503 42.3181C113.339 42.3406 113.205 42.439 113.1 42.6133C112.945 42.8668 112.839 43.2897 112.782 43.882C112.735 44.3943 112.733 44.8073 112.776 45.1209ZM115.711 43.3271L115.771 42.4781C116.52 42.0201 117.081 41.5301 117.453 41.008L118.017 40.9302L117.677 45.8209L116.746 45.9494L116.98 42.5805C116.804 42.7318 116.596 42.8765 116.357 43.0146C116.12 43.1524 115.905 43.2565 115.711 43.3271Z" fill="white"/>
<path d="M95.2029 57.4881L95.2632 56.6391C96.0122 56.1811 96.5729 55.6911 96.9454 55.1691L97.5093 55.0913L97.1692 59.9819L96.2378 60.1104L96.4726 56.7416C96.2965 56.8928 96.0887 57.0375 95.8495 57.1756C95.6123 57.3134 95.3968 57.4176 95.2029 57.4881ZM98.6812 58.207C98.6157 57.7322 98.6299 57.2398 98.7238 56.7299C98.8394 56.1075 99.0318 55.63 99.3012 55.2973C99.5705 54.9646 99.8943 54.7722 100.272 54.72C100.655 54.6673 100.988 54.7626 101.271 55.0059C101.556 55.249 101.735 55.6348 101.808 56.1633C101.875 56.6467 101.855 57.1704 101.749 57.7346C101.645 58.2963 101.46 58.7421 101.195 59.0721C100.929 59.3999 100.605 59.5902 100.222 59.6429C99.84 59.6956 99.5051 59.6006 99.2176 59.3579C98.9323 59.1148 98.7535 58.7312 98.6812 58.207ZM99.6158 58.2685C99.6507 58.522 99.7162 58.6947 99.812 58.7866C99.9079 58.8784 100.02 58.9155 100.149 58.8977C100.321 58.874 100.463 58.7735 100.574 58.5961C100.723 58.3588 100.823 57.9181 100.874 57.274C100.915 56.7626 100.916 56.3619 100.876 56.0718C100.843 55.8355 100.778 55.6716 100.68 55.58C100.584 55.486 100.471 55.4479 100.342 55.4656C100.179 55.4882 100.045 55.5866 99.9398 55.7609C99.7843 56.0144 99.6785 56.4373 99.6222 57.0296C99.5747 57.5419 99.5725 57.9549 99.6158 58.2685ZM102.355 57.7002C102.289 57.2254 102.304 56.7331 102.398 56.2232C102.513 55.6008 102.706 55.1233 102.975 54.7906C103.244 54.4579 103.568 54.2654 103.946 54.2133C104.329 54.1605 104.661 54.2558 104.944 54.4992C105.23 54.7423 105.409 55.1281 105.482 55.6566C105.548 56.1399 105.529 56.6637 105.423 57.2279C105.318 57.7895 105.134 58.2354 104.868 58.5653C104.603 58.8932 104.279 59.0834 103.896 59.1362C103.514 59.1889 103.179 59.0939 102.891 58.8511C102.606 58.6081 102.427 58.2244 102.355 57.7002ZM103.29 57.7618C103.325 58.0153 103.39 58.188 103.486 58.2799C103.582 58.3717 103.694 58.4088 103.823 58.391C103.995 58.3673 104.136 58.2667 104.248 58.0894C104.397 57.8521 104.497 57.4114 104.548 56.7672C104.589 56.2558 104.59 55.8551 104.55 55.5651C104.517 55.3288 104.452 55.1648 104.354 55.0733C104.258 54.9793 104.145 54.9411 104.016 54.9589C103.853 54.9814 103.719 55.0799 103.614 55.2542C103.458 55.5077 103.352 55.9306 103.296 56.5229C103.248 57.0352 103.246 57.4481 103.29 57.7618ZM106.029 57.1935C105.963 56.7187 105.977 56.2264 106.071 55.7165C106.187 55.0941 106.379 54.6166 106.649 54.2838C106.918 53.9511 107.242 53.7587 107.62 53.7066C108.002 53.6538 108.335 53.7491 108.618 53.9925C108.904 54.2355 109.083 54.6213 109.156 55.1498C109.222 55.6332 109.203 56.157 109.096 56.7211C108.992 57.2828 108.807 57.7287 108.542 58.0586C108.276 58.3864 107.952 58.5767 107.57 58.6295C107.188 58.6822 106.853 58.5872 106.565 58.3444C106.28 58.1014 106.101 57.7177 106.029 57.1935ZM106.963 57.2551C106.998 57.5086 107.064 57.6813 107.16 57.7731C107.255 57.865 107.368 57.902 107.497 57.8843C107.669 57.8606 107.81 57.76 107.921 57.5827C108.07 57.3454 108.171 56.9047 108.222 56.2605C108.263 55.7491 108.263 55.3484 108.223 55.0584C108.191 54.8221 108.126 54.6581 108.028 54.5665C107.931 54.4725 107.819 54.4344 107.69 54.4522C107.527 54.4747 107.392 54.5731 107.287 54.7475C107.132 55.001 107.026 55.4239 106.97 56.0162C106.922 56.5284 106.92 56.9414 106.963 57.2551ZM110.187 53.4637L110.29 52.0137C111.57 51.2315 112.527 50.3945 113.163 49.5029L114.127 49.37L113.546 57.7231L111.955 57.9425L112.356 52.1887C112.055 52.4471 111.7 52.6942 111.292 52.93C110.887 53.1654 110.519 53.3433 110.187 53.4637ZM115.625 52.7137L115.728 51.2636C117.008 50.4814 117.965 49.6445 118.601 48.7528L119.565 48.6199L118.984 56.9731L117.393 57.1925L117.794 51.4386C117.493 51.697 117.138 51.9441 116.73 52.1799C116.325 52.4153 115.957 52.5932 115.625 52.7137ZM121.063 51.9636L121.166 50.5135C122.446 49.7313 123.403 48.8944 124.039 48.0027L125.003 47.8699L124.422 56.223L122.831 56.4424L123.232 50.6885C122.931 50.9469 122.576 51.194 122.168 51.4299C121.763 51.6652 121.395 51.8431 121.063 51.9636ZM127.004 53.1914C126.892 52.3804 126.917 51.5395 127.077 50.6686C127.274 49.6056 127.603 48.79 128.063 48.2218C128.523 47.6535 129.076 47.3248 129.722 47.2358C130.375 47.1457 130.943 47.3085 131.427 47.7241C131.914 48.1393 132.22 48.7982 132.345 49.7008C132.459 50.5265 132.425 51.421 132.244 52.3846C132.066 53.3439 131.75 54.1054 131.297 54.6689C130.843 55.2288 130.29 55.5538 129.637 55.6439C128.983 55.734 128.411 55.5717 127.92 55.1571C127.433 54.7419 127.128 54.0867 127.004 53.1914ZM128.6 53.2965C128.66 53.7295 128.772 54.0245 128.936 54.1814C129.099 54.3383 129.291 54.4015 129.511 54.3711C129.805 54.3307 130.047 54.159 130.237 53.856C130.491 53.4508 130.662 52.698 130.75 51.5979C130.82 50.7244 130.821 50.04 130.753 49.5446C130.697 49.141 130.586 48.861 130.418 48.7046C130.254 48.544 130.062 48.4789 129.842 48.5093C129.563 48.5478 129.333 48.7159 129.154 49.0136C128.888 49.4466 128.707 50.1689 128.611 51.1805C128.53 52.0554 128.527 52.7608 128.6 53.2965ZM133.613 50.2327L133.716 48.7826C134.995 48.0004 135.953 47.1635 136.589 46.2718L137.552 46.1389L136.971 54.4921L135.38 54.7115L135.781 48.9576C135.48 49.216 135.126 49.4631 134.717 49.6989C134.312 49.9343 133.944 50.1122 133.613 50.2327Z" fill="white"/>
<path d="M95.9958 65.8768C95.9303 65.402 95.9444 64.9096 96.0383 64.3997C96.1539 63.7773 96.3463 63.2998 96.6157 62.9671C96.8851 62.6344 97.2088 62.442 97.5869 62.3898C97.9693 62.3371 98.3021 62.4324 98.5853 62.6757C98.8706 62.9188 99.0497 63.3046 99.1226 63.8331C99.1892 64.3165 99.1695 64.8402 99.0634 65.4044C98.9592 65.9661 98.7744 66.4119 98.509 66.7419C98.2434 67.0697 97.9193 67.26 97.5369 67.3127C97.1545 67.3655 96.8196 67.2704 96.5321 67.0277C96.2469 66.7846 96.0681 66.401 95.9958 65.8768ZM96.9303 65.9383C96.9653 66.1918 97.0307 66.3645 97.1265 66.4564C97.2224 66.5483 97.3348 66.5853 97.4637 66.5675C97.6356 66.5438 97.7771 66.4433 97.8884 66.2659C98.0374 66.0286 98.1375 65.5879 98.1888 64.9438C98.2299 64.4324 98.2305 64.0317 98.1904 63.7416C98.1579 63.5053 98.0925 63.3414 97.9945 63.2498C97.8984 63.1558 97.7858 63.1177 97.6569 63.1355C97.4937 63.158 97.3595 63.2564 97.2543 63.4307C97.0988 63.6842 96.993 64.1071 96.9367 64.6994C96.8892 65.2117 96.887 65.6247 96.9303 65.9383ZM99.6695 65.37C99.604 64.8952 99.6182 64.4029 99.7121 63.893C99.8276 63.2706 100.02 62.7931 100.289 62.4604C100.559 62.1277 100.883 61.9352 101.261 61.8831C101.643 61.8303 101.976 61.9257 102.259 62.169C102.544 62.4121 102.723 62.7979 102.796 63.3264C102.863 63.8098 102.843 64.3335 102.737 64.8977C102.633 65.4594 102.448 65.9052 102.183 66.2351C101.917 66.563 101.593 66.7532 101.211 66.806C100.828 66.8587 100.493 66.7637 100.206 66.521C99.9206 66.2779 99.7418 65.8943 99.6695 65.37ZM100.604 65.4316C100.639 65.6851 100.704 65.8578 100.8 65.9497C100.896 66.0415 101.009 66.0786 101.137 66.0608C101.309 66.0371 101.451 65.9366 101.562 65.7592C101.711 65.5219 101.811 65.0812 101.863 64.4371C101.904 63.9257 101.904 63.5249 101.864 63.2349C101.832 62.9986 101.766 62.8346 101.668 62.7431C101.572 62.6491 101.46 62.611 101.331 62.6287C101.167 62.6513 101.033 62.7497 100.928 62.924C100.773 63.1775 100.667 63.6004 100.611 64.1927C100.563 64.705 100.561 65.1179 100.604 65.4316ZM103.539 63.6377L103.599 62.7888C104.348 62.3308 104.909 61.8408 105.281 61.3187L105.845 61.2409L105.505 66.1316L104.574 66.26L104.808 62.8912C104.632 63.0425 104.425 63.1872 104.185 63.3253C103.948 63.4631 103.733 63.5672 103.539 63.6377ZM107.017 64.3566C106.952 63.8818 106.966 63.3895 107.06 62.8795C107.175 62.2572 107.368 61.7796 107.637 61.4469C107.906 61.1142 108.23 60.9218 108.608 60.8696C108.991 60.8169 109.323 60.9122 109.607 61.1556C109.892 61.3986 110.071 61.7844 110.144 62.3129C110.21 62.7963 110.191 63.3201 110.085 63.8842C109.98 64.4459 109.796 64.8917 109.53 65.2217C109.265 65.5495 108.941 65.7398 108.558 65.7925C108.176 65.8453 107.841 65.7503 107.553 65.5075C107.268 65.2644 107.089 64.8808 107.017 64.3566ZM107.952 64.4182C107.987 64.6717 108.052 64.8444 108.148 64.9362C108.244 65.0281 108.356 65.0651 108.485 65.0473C108.657 65.0236 108.798 64.9231 108.91 64.7458C109.059 64.5085 109.159 64.0678 109.21 63.4236C109.251 62.9122 109.252 62.5115 109.212 62.2215C109.179 61.9851 109.114 61.8212 109.016 61.7296C108.92 61.6356 108.807 61.5975 108.678 61.6153C108.515 61.6378 108.381 61.7362 108.276 61.9105C108.12 62.1641 108.014 62.587 107.958 63.1792C107.91 63.6915 107.908 64.1045 107.952 64.4182ZM111.176 60.6268L111.279 59.1768C112.558 58.3946 113.516 57.5576 114.152 56.666L115.115 56.5331L114.534 64.8862L112.943 65.1056L113.344 59.3518C113.043 59.6101 112.689 59.8573 112.28 60.0931C111.875 60.3285 111.507 60.5064 111.176 60.6268ZM116.614 59.8767L116.717 58.4267C117.996 57.6445 118.954 56.8076 119.59 55.9159L120.553 55.783L119.972 64.1361L118.381 64.3555L118.782 58.6017C118.481 58.8601 118.127 59.1072 117.718 59.343C117.313 59.5784 116.945 59.7563 116.614 59.8767ZM122.555 61.1045C122.443 60.2936 122.467 59.4527 122.627 58.5818C122.825 57.5188 123.153 56.7032 123.613 56.1349C124.073 55.5667 124.626 55.238 125.272 55.1489C125.925 55.0588 126.494 55.2216 126.977 55.6373C127.465 56.0524 127.77 56.7113 127.895 57.614C128.009 58.4396 127.975 59.3342 127.794 60.2977C127.616 61.2571 127.3 62.0185 126.847 62.5821C126.393 63.142 125.84 63.467 125.187 63.5571C124.534 63.6472 123.962 63.4849 123.471 63.0702C122.983 62.6551 122.678 61.9999 122.555 61.1045ZM124.151 61.2097C124.21 61.6427 124.322 61.9376 124.486 62.0945C124.65 62.2514 124.842 62.3147 125.062 62.2843C125.355 62.2438 125.597 62.0721 125.787 61.7692C126.042 61.3639 126.213 60.6112 126.3 59.511C126.37 58.6376 126.371 57.9532 126.303 57.4578C126.247 57.0542 126.136 56.7742 125.968 56.6178C125.804 56.4572 125.612 56.3921 125.392 56.4225C125.113 56.4609 124.884 56.629 124.704 56.9267C124.439 57.3597 124.258 58.082 124.162 59.0936C124.08 59.9686 124.077 60.6739 124.151 61.2097ZM128.829 60.2391C128.717 59.4281 128.742 58.5872 128.902 57.7163C129.099 56.6533 129.428 55.8377 129.888 55.2695C130.348 54.7012 130.901 54.3725 131.547 54.2835C132.2 54.1934 132.768 54.3562 133.252 54.7718C133.739 55.187 134.045 55.8459 134.17 56.7485C134.284 57.5741 134.25 58.4687 134.069 59.4322C133.891 60.3916 133.575 61.1531 133.122 61.7166C132.668 62.2765 132.115 62.6015 131.461 62.6916C130.808 62.7817 130.236 62.6194 129.745 62.2048C129.258 61.7896 128.953 61.1344 128.829 60.2391ZM130.425 60.3442C130.485 60.7772 130.597 61.0721 130.761 61.229C130.924 61.3859 131.116 61.4492 131.336 61.4188C131.63 61.3783 131.872 61.2066 132.062 60.9037C132.316 60.4985 132.487 59.7457 132.575 58.6455C132.645 57.7721 132.646 57.0877 132.578 56.5923C132.522 56.1887 132.41 55.9087 132.243 55.7523C132.079 55.5917 131.887 55.5266 131.666 55.557C131.388 55.5955 131.158 55.7636 130.979 56.0613C130.713 56.4943 130.532 57.2166 130.436 58.2282C130.355 59.1031 130.351 59.8085 130.425 60.3442Z" fill="white"/>
<path d="M85.0348 69.6369L85.095 68.788C85.8441 68.33 86.4048 67.84 86.7772 67.3179L87.3412 67.2401L87.001 72.1308L86.0697 72.2592L86.3045 68.8904C86.1283 69.0417 85.9206 69.1864 85.6813 69.3245C85.4442 69.4623 85.2287 69.5664 85.0348 69.6369ZM88.5131 70.3558C88.4476 69.881 88.4618 69.3887 88.5557 68.8787C88.6712 68.2564 88.8637 67.7788 89.1331 67.4461C89.4024 67.1134 89.7262 66.921 90.1043 66.8688C90.4867 66.8161 90.8195 66.9114 91.1026 67.1548C91.3879 67.3978 91.567 67.7836 91.6399 68.3121C91.7066 68.7955 91.6869 69.3193 91.5808 69.8834C91.4765 70.4451 91.2917 70.8909 91.0264 71.2209C90.7607 71.5487 90.4367 71.739 90.0543 71.7917C89.6719 71.8445 89.3369 71.7495 89.0495 71.5067C88.7642 71.2636 88.5854 70.88 88.5131 70.3558ZM89.4476 70.4174C89.4826 70.6709 89.548 70.8436 89.6439 70.9354C89.7398 71.0273 89.8521 71.0643 89.981 71.0465C90.1529 71.0228 90.2945 70.9223 90.4058 70.745C90.5547 70.5077 90.6549 70.067 90.7061 69.4228C90.7472 68.9114 90.7478 68.5107 90.7078 68.2207C90.6752 67.9843 90.6099 67.8204 90.5119 67.7288C90.4157 67.6348 90.3032 67.5967 90.1743 67.6145C90.011 67.637 89.8768 67.7354 89.7717 67.9097C89.6162 68.1633 89.5103 68.5862 89.4541 69.1784C89.4065 69.6907 89.4044 70.1037 89.4476 70.4174ZM92.1868 69.8491C92.1214 69.3743 92.1355 68.8819 92.2294 68.372C92.345 67.7497 92.5374 67.2721 92.8068 66.9394C93.0762 66.6067 93.3999 66.4143 93.778 66.3621C94.1604 66.3094 94.4932 66.4047 94.7764 66.648C95.0617 66.8911 95.2408 67.2769 95.3136 67.8054C95.3803 68.2888 95.3606 68.8126 95.2545 69.3767C95.1503 69.9384 94.9655 70.3842 94.7001 70.7142C94.4345 71.042 94.1104 71.2323 93.728 71.285C93.3456 71.3378 93.0107 71.2428 92.7232 71C92.438 70.7569 92.2592 70.3733 92.1868 69.8491ZM93.1214 69.9106C93.1564 70.1642 93.2218 70.3368 93.3176 70.4287C93.4135 70.5206 93.5259 70.5576 93.6548 70.5398C93.8267 70.5161 93.9682 70.4156 94.0795 70.2382C94.2285 70.001 94.3286 69.5602 94.3799 68.9161C94.421 68.4047 94.4215 68.004 94.3815 67.7139C94.3489 67.4776 94.2836 67.3137 94.1856 67.2221C94.0895 67.1281 93.9769 67.09 93.848 67.1078C93.6848 67.1303 93.5506 67.2287 93.4454 67.403C93.2899 67.6565 93.1841 68.0794 93.1278 68.6717C93.0803 69.184 93.0781 69.597 93.1214 69.9106ZM96.0561 68.1168L96.1163 67.2678C96.8653 66.8098 97.4261 66.3198 97.7985 65.7977L98.3624 65.7199L98.0223 70.6106L97.091 70.7391L97.3258 67.3702C97.1496 67.5215 96.9419 67.6662 96.7026 67.8043C96.4654 67.9421 96.2499 68.0462 96.0561 68.1168ZM99.5344 68.8356C99.4689 68.3608 99.4831 67.8685 99.5769 67.3586C99.6925 66.7362 99.885 66.2587 100.154 65.926C100.424 65.5933 100.747 65.4008 101.126 65.3487C101.508 65.2959 101.841 65.3912 102.124 65.6346C102.409 65.8777 102.588 66.2635 102.661 66.792C102.728 67.2753 102.708 67.7991 102.602 68.3632C102.498 68.9249 102.313 69.3708 102.048 69.7007C101.782 70.0286 101.458 70.2188 101.076 70.2716C100.693 70.3243 100.358 70.2293 100.071 69.9865C99.7855 69.7435 99.6067 69.3598 99.5344 68.8356ZM100.469 68.8972C100.504 69.1507 100.569 69.3234 100.665 69.4153C100.761 69.5071 100.873 69.5442 101.002 69.5264C101.174 69.5027 101.316 69.4021 101.427 69.2248C101.576 68.9875 101.676 68.5468 101.727 67.9026C101.769 67.3912 101.769 66.9905 101.729 66.7005C101.696 66.4642 101.631 66.3002 101.533 66.2087C101.437 66.1147 101.324 66.0765 101.196 66.0943C101.032 66.1168 100.898 66.2153 100.793 66.3896C100.637 66.6431 100.532 67.066 100.475 67.6583C100.428 68.1706 100.426 68.5835 100.469 68.8972ZM103.208 68.3289C103.143 67.8541 103.157 67.3618 103.251 66.8519C103.366 66.2295 103.559 65.752 103.828 65.4192C104.097 65.0865 104.421 64.8941 104.799 64.842C105.182 64.7892 105.514 64.8845 105.798 65.1279C106.083 65.3709 106.262 65.7567 106.335 66.2852C106.402 66.7686 106.382 67.2924 106.276 67.8565C106.172 68.4182 105.987 68.864 105.721 69.194C105.456 69.5218 105.132 69.7121 104.749 69.7649C104.367 69.8176 104.032 69.7226 103.745 69.4798C103.459 69.2368 103.28 68.8531 103.208 68.3289ZM104.143 68.3905C104.178 68.644 104.243 68.8167 104.339 68.9085C104.435 69.0004 104.547 69.0374 104.676 69.0197C104.848 68.996 104.99 68.8954 105.101 68.7181C105.25 68.4808 105.35 68.0401 105.401 67.3959C105.442 66.8845 105.443 66.4838 105.403 66.1938C105.37 65.9575 105.305 65.7935 105.207 65.7019C105.111 65.6079 104.998 65.5698 104.869 65.5876C104.706 65.6101 104.572 65.7085 104.467 65.8829C104.311 66.1364 104.205 66.5593 104.149 67.1516C104.102 67.6638 104.099 68.0768 104.143 68.3905ZM107.077 66.5966L107.138 65.7476C107.887 65.2896 108.447 64.7996 108.82 64.2776L109.384 64.1998L109.044 69.0904L108.112 69.2189L108.347 65.8501C108.171 66.0014 107.963 66.146 107.724 66.2841C107.487 66.4219 107.271 66.5261 107.077 66.5966Z" fill="white"/>
<path d="M86.5696 80.7576L86.6299 79.9086C87.3789 79.4507 87.9396 78.9606 88.3121 78.4386L88.876 78.3608L88.5359 83.2515L87.6045 83.3799L87.8393 80.0111C87.6632 80.1624 87.4554 80.3071 87.2162 80.4451C86.979 80.5829 86.7635 80.6871 86.5696 80.7576ZM90.0479 81.4765C89.9824 81.0017 89.9966 80.5093 90.0905 79.9994C90.2061 79.3771 90.3985 78.8995 90.6679 78.5668C90.9372 78.2341 91.261 78.0417 91.6391 77.9895C92.0215 77.9368 92.3543 78.0321 92.6374 78.2755C92.9227 78.5185 93.1018 78.9043 93.1747 79.4328C93.2414 79.9162 93.2217 80.44 93.1156 81.0041C93.0114 81.5658 92.8266 82.0116 92.5612 82.3416C92.2956 82.6694 91.9715 82.8597 91.5891 82.9124C91.2067 82.9652 90.8718 82.8702 90.5843 82.6274C90.299 82.3843 90.1202 82.0007 90.0479 81.4765ZM90.9825 81.5381C91.0174 81.7916 91.0829 81.9643 91.1787 82.0561C91.2746 82.148 91.387 82.185 91.5159 82.1672C91.6877 82.1435 91.8293 82.043 91.9406 81.8656C92.0896 81.6284 92.1897 81.1876 92.241 80.5435C92.2821 80.0321 92.2826 79.6314 92.2426 79.3414C92.21 79.105 92.1447 78.9411 92.0467 78.8495C91.9505 78.7555 91.838 78.7174 91.7091 78.7352C91.5458 78.7577 91.4116 78.8561 91.3065 79.0304C91.151 79.2839 91.0452 79.7068 90.9889 80.2991C90.9414 80.8114 90.9392 81.2244 90.9825 81.5381ZM93.7217 80.9698C93.6562 80.495 93.6704 80.0026 93.7642 79.4927C93.8798 78.8703 94.0723 78.3928 94.3416 78.0601C94.611 77.7274 94.9347 77.535 95.3129 77.4828C95.6953 77.4301 96.0281 77.5254 96.3112 77.7687C96.5965 78.0118 96.7756 78.3976 96.8485 78.9261C96.9152 79.4095 96.8955 79.9332 96.7894 80.4974C96.6851 81.0591 96.5003 81.5049 96.235 81.8349C95.9693 82.1627 95.6453 82.353 95.2629 82.4057C94.8804 82.4585 94.5455 82.3634 94.2581 82.1207C93.9728 81.8776 93.794 81.494 93.7217 80.9698ZM94.6562 81.0313C94.6912 81.2848 94.7566 81.4575 94.8525 81.5494C94.9483 81.6413 95.0607 81.6783 95.1896 81.6605C95.3615 81.6368 95.5031 81.5363 95.6143 81.3589C95.7633 81.1216 95.8634 80.6809 95.9147 80.0368C95.9558 79.5254 95.9564 79.1247 95.9164 78.8346C95.8838 78.5983 95.8185 78.4344 95.7205 78.3428C95.6243 78.2488 95.5118 78.2107 95.3829 78.2285C95.2196 78.251 95.0854 78.3494 94.9803 78.5237C94.8248 78.7772 94.7189 79.2001 94.6627 79.7924C94.6151 80.3047 94.613 80.7177 94.6562 81.0313ZM97.3954 80.463C97.3299 79.9882 97.3441 79.4959 97.438 78.986C97.5536 78.3636 97.746 77.8861 98.0154 77.5534C98.2848 77.2207 98.6085 77.0282 98.9866 76.9761C99.369 76.9233 99.7018 77.0187 99.985 77.262C100.27 77.5051 100.449 77.8909 100.522 78.4194C100.589 78.9028 100.569 79.4265 100.463 79.9907C100.359 80.5524 100.174 80.9982 99.9087 81.3281C99.6431 81.656 99.319 81.8462 98.9366 81.899C98.5542 81.9517 98.2193 81.8567 97.9318 81.614C97.6465 81.3709 97.4677 80.9873 97.3954 80.463ZM98.33 80.5246C98.365 80.7781 98.4304 80.9508 98.5262 81.0427C98.6221 81.1345 98.7345 81.1716 98.8634 81.1538C99.0353 81.1301 99.1768 81.0296 99.2881 80.8522C99.4371 80.6149 99.5372 80.1742 99.5885 79.5301C99.6296 79.0187 99.6301 78.6179 99.5901 78.3279C99.5575 78.0916 99.4922 77.9276 99.3942 77.8361C99.2981 77.7421 99.1855 77.704 99.0566 77.7217C98.8933 77.7443 98.7591 77.8427 98.654 78.017C98.4985 78.2705 98.3927 78.6934 98.3364 79.2857C98.2889 79.798 98.2867 80.2109 98.33 80.5246ZM101.554 76.7333L101.657 75.2832C102.936 74.501 103.894 73.6641 104.53 72.7724L105.493 72.6395L104.912 80.9927L103.322 81.2121L103.723 75.4582C103.422 75.7166 103.067 75.9637 102.658 76.1995C102.253 76.4349 101.885 76.6128 101.554 76.7333ZM106.992 75.9832L107.095 74.5331C108.374 73.7509 109.332 72.914 109.968 72.0223L110.931 71.8895L110.35 80.2426L108.76 80.462L109.161 74.7081C108.86 74.9665 108.505 75.2136 108.096 75.4495C107.691 75.6848 107.323 75.8627 106.992 75.9832ZM112.43 75.2331L112.533 73.7831C113.812 73.0009 114.77 72.1639 115.406 71.2723L116.369 71.1394L115.788 79.4925L114.198 79.7119L114.599 73.9581C114.298 74.2164 113.943 74.4636 113.534 74.6994C113.129 74.9348 112.761 75.1127 112.43 75.2331ZM118.371 76.4609C118.259 75.65 118.283 74.8091 118.444 73.9381C118.641 72.8752 118.97 72.0595 119.43 71.4913C119.89 70.923 120.443 70.5944 121.089 70.5053C121.742 70.4152 122.31 70.578 122.794 70.9936C123.281 71.4088 123.587 72.0677 123.711 72.9704C123.825 73.796 123.792 74.6906 123.61 75.6541C123.432 76.6134 123.117 77.3749 122.664 77.9385C122.21 78.4984 121.656 78.8234 121.003 78.9135C120.35 79.0035 119.778 78.8413 119.287 78.4266C118.8 78.0115 118.494 77.3562 118.371 76.4609ZM119.967 76.5661C120.027 76.999 120.139 77.294 120.302 77.4509C120.466 77.6078 120.658 77.671 120.878 77.6407C121.172 77.6002 121.414 77.4285 121.604 77.1256C121.858 76.7203 122.029 75.9676 122.117 74.8674C122.187 73.9939 122.188 73.3095 122.119 72.8142C122.064 72.4105 121.952 72.1305 121.785 71.9741C121.621 71.8136 121.428 71.7485 121.208 71.7788C120.929 71.8173 120.7 71.9854 120.521 72.2831C120.255 72.7161 120.074 73.4384 119.978 74.45C119.897 75.325 119.893 76.0303 119.967 76.5661ZM124.979 73.5022L125.082 72.0521C126.362 71.2699 127.319 70.433 127.955 69.5413L128.919 69.4085L128.338 77.7616L126.747 77.981L127.148 72.2271C126.847 72.4855 126.492 72.7326 126.084 72.9685C125.679 73.2038 125.311 73.3817 124.979 73.5022Z" fill="white"/>
<path d="M87.3625 89.1463C87.297 88.6715 87.3111 88.1792 87.405 87.6692C87.5206 87.0469 87.713 86.5693 87.9824 86.2366C88.2518 85.9039 88.5755 85.7115 88.9536 85.6593C89.336 85.6066 89.6688 85.7019 89.952 85.9453C90.2373 86.1883 90.4164 86.5741 90.4893 87.1026C90.5559 87.586 90.5362 88.1098 90.4301 88.6739C90.3259 89.2356 90.1411 89.6814 89.8757 90.0114C89.6101 90.3392 89.286 90.5295 88.9036 90.5822C88.5212 90.635 88.1863 90.54 87.8988 90.2972C87.6136 90.0541 87.4348 89.6705 87.3625 89.1463ZM88.297 89.2079C88.332 89.4614 88.3974 89.6341 88.4932 89.7259C88.5891 89.8178 88.7015 89.8548 88.8304 89.837C89.0023 89.8133 89.1438 89.7128 89.2551 89.5355C89.4041 89.2982 89.5042 88.8575 89.5555 88.2133C89.5966 87.7019 89.5972 87.3012 89.5571 87.0112C89.5246 86.7748 89.4592 86.6109 89.3612 86.5193C89.2651 86.4253 89.1525 86.3872 89.0236 86.405C88.8604 86.4275 88.7262 86.5259 88.621 86.7002C88.4655 86.9538 88.3597 87.3767 88.3034 87.9689C88.2559 88.4812 88.2537 88.8942 88.297 89.2079ZM91.0362 88.6396C90.9707 88.1648 90.9849 87.6724 91.0788 87.1625C91.1943 86.5402 91.3868 86.0626 91.6562 85.7299C91.9255 85.3972 92.2493 85.2048 92.6274 85.1526C93.0098 85.0999 93.3426 85.1952 93.6257 85.4385C93.911 85.6816 94.0901 86.0674 94.163 86.5959C94.2297 87.0793 94.21 87.6031 94.1039 88.1672C93.9997 88.7289 93.8149 89.1747 93.5495 89.5047C93.2838 89.8325 92.9598 90.0228 92.5774 90.0755C92.195 90.1283 91.86 90.0333 91.5726 89.7905C91.2873 89.5474 91.1085 89.1638 91.0362 88.6396ZM91.9708 88.7011C92.0057 88.9546 92.0711 89.1273 92.167 89.2192C92.2629 89.3111 92.3752 89.3481 92.5042 89.3303C92.676 89.3066 92.8176 89.2061 92.9289 89.0287C93.0778 88.7914 93.178 88.3507 93.2292 87.7066C93.2704 87.1952 93.2709 86.7945 93.2309 86.5044C93.1983 86.2681 93.133 86.1042 93.035 86.0126C92.9388 85.9186 92.8263 85.8805 92.6974 85.8983C92.5341 85.9208 92.3999 86.0192 92.2948 86.1935C92.1393 86.447 92.0334 86.8699 91.9772 87.4622C91.9296 87.9745 91.9275 88.3875 91.9708 88.7011ZM94.9054 86.9073L94.9657 86.0583C95.7147 85.6003 96.2754 85.1103 96.6478 84.5882L97.2118 84.5104L96.8717 89.4011L95.9403 89.5296L96.1751 86.1607C95.999 86.312 95.7912 86.4567 95.5519 86.5948C95.3148 86.7326 95.0993 86.8367 94.9054 86.9073ZM98.3837 87.6261C98.3182 87.1513 98.3324 86.659 98.4263 86.1491C98.5418 85.5267 98.7343 85.0492 99.0037 84.7165C99.273 84.3838 99.5968 84.1913 99.9749 84.1392C100.357 84.0864 100.69 84.1817 100.973 84.4251C101.259 84.6682 101.438 85.0539 101.511 85.5825C101.577 86.0658 101.557 86.5896 101.451 87.1537C101.347 87.7154 101.162 88.1613 100.897 88.4912C100.631 88.819 100.307 89.0093 99.9249 89.0621C99.5425 89.1148 99.2076 89.0198 98.9201 88.777C98.6348 88.534 98.456 88.1503 98.3837 87.6261ZM99.3183 87.6877C99.3532 87.9412 99.4187 88.1139 99.5145 88.2058C99.6104 88.2976 99.7228 88.3347 99.8517 88.3169C100.024 88.2932 100.165 88.1926 100.276 88.0153C100.425 87.778 100.525 87.3373 100.577 86.6931C100.618 86.1817 100.618 85.781 100.578 85.491C100.546 85.2547 100.481 85.0907 100.383 84.9992C100.286 84.9052 100.174 84.867 100.045 84.8848C99.8816 84.9073 99.7474 85.0058 99.6423 85.1801C99.4868 85.4336 99.3809 85.8565 99.3247 86.4488C99.2772 86.9611 99.275 87.374 99.3183 87.6877ZM102.542 83.8963L102.645 82.4463C103.925 81.6641 104.882 80.8272 105.518 79.9355L106.482 79.8026L105.901 88.1557L104.31 88.3751L104.711 82.6213C104.41 82.8797 104.055 83.1268 103.647 83.3626C103.242 83.598 102.874 83.7759 102.542 83.8963ZM107.98 83.1463L108.083 81.6962C109.363 80.914 110.32 80.0771 110.956 79.1854L111.92 79.0526L111.339 87.4057L109.748 87.6251L110.149 81.8712C109.848 82.1296 109.493 82.3767 109.085 82.6126C108.68 82.8479 108.312 83.0258 107.98 83.1463ZM113.921 84.3741C113.809 83.5631 113.834 82.7222 113.994 81.8513C114.191 80.7883 114.52 79.9727 114.98 79.4044C115.44 78.8362 115.993 78.5075 116.639 78.4185C117.292 78.3284 117.86 78.4912 118.344 78.9068C118.831 79.322 119.137 79.9809 119.262 80.8835C119.376 81.7091 119.342 82.6037 119.161 83.5672C118.983 84.5266 118.667 85.2881 118.214 85.8516C117.76 86.4115 117.207 86.7365 116.553 86.8266C115.9 86.9167 115.328 86.7544 114.837 86.3398C114.35 85.9246 114.045 85.2694 113.921 84.3741ZM115.517 84.4792C115.577 84.9122 115.689 85.2071 115.853 85.364C116.016 85.5209 116.208 85.5842 116.428 85.5538C116.722 85.5133 116.964 85.3416 117.154 85.0387C117.408 84.6335 117.579 83.8807 117.667 82.7805C117.737 81.9071 117.738 81.2227 117.67 80.7273C117.614 80.3237 117.502 80.0437 117.335 79.8873C117.171 79.7267 116.979 79.6616 116.758 79.692C116.48 79.7305 116.25 79.8986 116.071 80.1963C115.805 80.6293 115.624 81.3516 115.528 82.3632C115.447 83.2381 115.443 83.9435 115.517 84.4792ZM120.196 83.5086C120.084 82.6977 120.108 81.8567 120.269 80.9858C120.466 79.9228 120.795 79.1072 121.255 78.539C121.715 77.9707 122.268 77.6421 122.914 77.553C123.567 77.4629 124.135 77.6257 124.619 78.0413C125.106 78.4565 125.412 79.1154 125.536 80.0181C125.65 80.8437 125.617 81.7382 125.435 82.7018C125.257 83.6611 124.942 84.4226 124.488 84.9862C124.035 85.5461 123.481 85.8711 122.828 85.9611C122.175 86.0512 121.603 85.889 121.112 85.4743C120.625 85.0592 120.319 84.4039 120.196 83.5086ZM121.792 83.6137C121.852 84.0467 121.963 84.3417 122.127 84.4986C122.291 84.6555 122.483 84.7187 122.703 84.6884C122.997 84.6479 123.238 84.4762 123.428 84.1733C123.683 83.768 123.854 83.0153 123.941 81.9151C124.012 81.0416 124.013 80.3572 123.944 79.8619C123.889 79.4582 123.777 79.1782 123.61 79.0218C123.445 78.8613 123.253 78.7962 123.033 78.8265C122.754 78.865 122.525 79.0331 122.345 79.3308C122.08 79.7638 121.899 80.4861 121.803 81.4977C121.722 82.3727 121.718 83.078 121.792 83.6137Z" fill="white"/>
</g>
<path d="M121.516 42.9665C117.548 40.6051 112.97 39.4734 108.359 39.7145C103.748 39.9556 99.3126 41.5587 95.6131 44.321C91.9136 47.0833 89.1164 50.8807 87.5754 55.233C86.0343 59.5852 85.8186 64.2967 86.9556 68.7715C88.0926 73.2463 90.5312 77.2834 93.9629 80.3722C97.3945 83.4609 101.665 85.4625 106.235 86.1239C110.804 86.7852 115.467 86.0765 119.634 84.0874C123.8 82.0984 127.283 78.9183 129.642 74.9494C132.806 69.6306 133.727 63.2729 132.203 57.2749C130.679 51.277 126.835 46.1301 121.516 42.9665ZM99.1648 80.5595C95.6964 78.4982 92.9173 75.4546 91.1788 71.8137C89.4403 68.1728 88.8206 64.0981 89.398 60.105C89.9754 56.1119 91.724 52.3797 94.4227 49.3804C97.1214 46.3811 100.649 44.2495 104.559 43.2551C108.469 42.2607 112.587 42.4483 116.39 43.794C120.194 45.1397 123.513 47.5832 125.928 50.8154C128.343 54.0475 129.745 57.9233 129.957 61.9523C130.169 65.9814 129.181 69.9829 127.119 73.4507C124.349 78.094 119.848 81.4474 114.606 82.7739C109.364 84.1005 103.81 83.2916 99.1648 80.5251V80.5595Z" fill="#263238"/>
<path d="M99.4535 82.4731L98.381 81.8337L97.3153 81.1943C97.3153 81.1943 87.8002 93.9339 85.2289 98.2515C82.6576 102.569 81.2894 106.453 83.1045 107.533C84.9195 108.612 87.6695 105.553 90.2408 101.235C92.8121 96.9177 99.4535 82.4731 99.4535 82.4731Z" fill="#263238"/>
<path d="M57.1707 72.1657C57.6462 72.2232 58.0906 72.432 58.4384 72.7612C58.7863 73.0905 59.0191 73.5228 59.1026 73.9944C59.14 74.2181 59.128 74.4473 59.0674 74.6658C59.0068 74.8843 58.8992 75.087 58.7519 75.2595C58.5983 75.4349 58.4075 75.5741 58.1935 75.6668C57.9795 75.7596 57.7475 75.8036 57.5144 75.7957C57.1985 75.7901 56.8873 75.7173 56.6016 75.5822C56.3159 75.447 56.0623 75.2527 55.8575 75.012C55.8163 75.1288 55.7888 75.2457 55.7544 75.3626C56.2186 75.8375 56.8505 76.1115 57.5144 76.1257C57.7947 76.1324 58.073 76.0774 58.3297 75.9645C58.5863 75.8517 58.815 75.6837 58.9994 75.4726C59.1779 75.2649 59.3086 75.0206 59.3822 74.7568C59.4559 74.4931 59.4707 74.2164 59.4257 73.9463C59.3286 73.4353 59.08 72.9652 58.7121 72.5974C58.3443 72.2295 57.8742 71.9809 57.3632 71.8838L57.1707 72.1657Z" fill="white"/>
<path d="M58.7992 84.7307C58.5197 84.725 58.2423 84.7798 57.986 84.8913C57.7296 85.0029 57.5005 85.1685 57.3142 85.3769C57.136 85.5861 57.0055 85.8317 56.9319 86.0965C56.8583 86.3612 56.8433 86.6389 56.8879 86.9101C56.9912 87.4976 57.295 88.0312 57.7475 88.4198C58.2001 88.8084 58.7734 89.0281 59.3698 89.0414C59.6526 89.0424 59.9321 88.9814 60.1887 88.8626C60.4453 88.7438 60.6727 88.5701 60.8549 88.3538C61.0317 88.1453 61.1609 87.9007 61.2333 87.6371C61.3058 87.3734 61.3197 87.0972 61.2742 86.8276C61.1722 86.2395 60.8688 85.7052 60.4159 85.3163C59.9631 84.9275 59.3891 84.7083 58.7923 84.6963L58.7992 84.7307ZM60.958 86.9032C60.9969 87.1274 60.9863 87.3575 60.9269 87.5772C60.8675 87.7969 60.7608 88.001 60.6142 88.1751C60.4596 88.3494 60.2687 88.4878 60.0549 88.5805C59.8411 88.6731 59.6096 88.7178 59.3767 88.7113C58.8585 88.7002 58.3602 88.5099 57.9666 88.1727C57.573 87.8355 57.3084 87.3723 57.2179 86.862C57.1804 86.6372 57.1923 86.407 57.2529 86.1873C57.3135 85.9677 57.4212 85.7638 57.5686 85.5901C57.7243 85.4172 57.9154 85.2798 58.1289 85.1872C58.3425 85.0947 58.5734 85.0492 58.8061 85.0538C59.3246 85.0636 59.8236 85.2535 60.2175 85.5909C60.6114 85.9284 60.8756 86.3923 60.9649 86.9032H60.958Z" fill="white"/>
<path d="M64.4671 78.2692C64.1874 78.2621 63.9096 78.3162 63.653 78.4279C63.3965 78.5395 63.1675 78.7059 62.9821 78.9154C62.8034 79.1242 62.6732 79.37 62.6007 79.635C62.5282 79.9001 62.5152 80.1779 62.5627 80.4486C62.6647 81.0367 62.9682 81.571 63.421 81.9598C63.8738 82.3487 64.4478 82.5679 65.0446 82.5799C65.3272 82.58 65.6065 82.5186 65.8629 82.3998C66.1194 82.2811 66.3469 82.1079 66.5296 81.8923C66.7083 81.6835 66.8385 81.4378 66.911 81.1727C66.9835 80.9077 66.9965 80.6299 66.949 80.3592C66.8385 79.7787 66.5314 79.2539 66.0794 78.8733C65.6273 78.4926 65.058 78.2793 64.4671 78.2692ZM66.2821 81.7067C66.1273 81.8807 65.9363 82.0188 65.7226 82.1114C65.5088 82.2041 65.2775 82.2489 65.0446 82.243C64.5261 82.2332 64.0271 82.0433 63.6332 81.7058C63.2393 81.3684 62.9751 80.9045 62.8858 80.3936C62.8455 80.1693 62.8554 79.939 62.9148 79.719C62.9743 79.4991 63.0818 79.2951 63.2296 79.1217C63.3848 78.9481 63.5758 78.8102 63.7894 78.7176C64.0031 78.625 64.2343 78.5799 64.4671 78.5854C64.9857 78.5952 65.4847 78.7851 65.8785 79.1226C66.2724 79.46 66.5366 79.9239 66.6259 80.4348C66.6678 80.6601 66.6587 80.8919 66.5992 81.1132C66.5397 81.3345 66.4314 81.5397 66.2821 81.7136V81.7067Z" fill="white"/>
</svg>
